<svg width="40" height="37" viewBox="0 0 40 37" fill="none" xmlns="http://www.w3.org/2000/svg">
    <path
        d="M11 2C5.55228 2 1 6.55228 1 12C1 15.8175 1.90002 18.8812 3.77051 21.8408C5.66025 24.8309 8.56202 27.7474 12.6377 31.2275C14.426 32.6192 17.3016 34.9375 20 35.9385C22.6987 34.9374 25.575 32.6191 27.3633 31.2275C31.4387 27.7476 34.3398 24.8307 36.2295 21.8408C38.1 18.8812 39 15.8175 39 12C39 6.55228 34.4477 2 29 2C25.4778 2 22.0998 3.86535 20.9062 6.42285L20 8.36426L19.0938 6.42285C17.9002 3.86535 14.5222 2 11 2Z"
        fill="url(#paint0_linear_94_1781)" stroke="#520000" stroke-width="2" />
    <path
        d="M1.21664 19C0.398749 16.8682 0 14.5915 0 12C0 6 5 1 11 1C14.8 1 18.6 3 20 6V19H1.21664Z"
        fill="url(#paint1_linear_94_1781)" />
    <path opacity="0.8"
        d="M1.15581 18C0.378812 15.8682 0 13.5915 0 11C0 5 4.75 0 10.45 0C14.06 0 17.67 2 19 5V18H1.15581Z"
        fill="url(#paint2_linear_94_1781)" />
    <path
        d="M11 2C5.55228 2 1 6.55228 1 12C1 15.8175 1.90002 18.8812 3.77051 21.8408C5.66025 24.8309 8.56202 27.7474 12.6377 31.2275C14.426 32.6192 17.3016 34.9375 20 35.9385C22.6987 34.9374 25.575 32.6191 27.3633 31.2275C31.4387 27.7476 34.3398 24.8307 36.2295 21.8408C38.1 18.8812 39 15.8175 39 12C39 6.55228 34.4477 2 29 2C25.4778 2 22.0998 3.86535 20.9062 6.42285L20 8.36426L19.0938 6.42285C17.9002 3.86535 14.5222 2 11 2Z"
        stroke="#520000" stroke-width="2" />
    <ellipse cx="11" cy="7" rx="3" ry="2" fill="white" />
    <circle cx="7" cy="10" r="1" fill="white" />
    <defs>
        <linearGradient id="paint0_linear_94_1781" x1="20" y1="1" x2="20" y2="37"
            gradientUnits="userSpaceOnUse">
            <stop stop-color="#290000" />
            <stop offset="1" stop-color="#915555" />
        </linearGradient>
        <linearGradient id="paint1_linear_94_1781" x1="5" y1="5" x2="29" y2="30"
            gradientUnits="userSpaceOnUse">
            <stop stop-color="#FF0000" />
            <stop offset="1" stop-color="#BD0909" />
        </linearGradient>
        <linearGradient id="paint2_linear_94_1781" x1="4.75" y1="4" x2="4.75" y2="18"
            gradientUnits="userSpaceOnUse">
            <stop offset="0.305" stop-color="white" stop-opacity="0" />
            <stop offset="1" stop-color="white" stop-opacity="0.65" />
        </linearGradient>
    </defs>
</svg>