<svg width="40" height="36" viewBox="0 0 40 36" fill="none" xmlns="http://www.w3.org/2000/svg">
    <path
        d="M11 1C5.55228 1 1 5.55228 1 11C1 14.8175 1.90002 17.8812 3.77051 20.8408C5.66025 23.8309 8.56202 26.7474 12.6377 30.2275C14.426 31.6192 17.3016 33.9375 20 34.9385C22.6987 33.9374 25.575 31.6191 27.3633 30.2275C31.4387 26.7476 34.3398 23.8307 36.2295 20.8408C38.1 17.8812 39 14.8175 39 11C39 5.55228 34.4477 1 29 1C25.4778 1 22.0998 2.86535 20.9062 5.42285L20 7.36426L19.0938 5.42285C17.9002 2.86535 14.5222 1 11 1Z"
        fill="url(#paint0_linear_94_1805)" stroke="#520000" stroke-width="2" />
    <defs>
        <linearGradient id="paint0_linear_94_1805" x1="20" y1="0" x2="20" y2="36"
            gradientUnits="userSpaceOnUse">
            <stop stop-color="#290000" />
            <stop offset="1" stop-color="#915555" />
        </linearGradient>
    </defs>
</svg>