<svg width="40" height="57" viewBox="0 0 40 57" fill="none" xmlns="http://www.w3.org/2000/svg">
    <path
        d="M10.8274 17.2283C13.0893 16.4194 16.1821 15.9158 19.6057 15.9158C23.011 15.9158 26.0882 16.4154 28.3508 17.2166L28.8264 17.3845L28.9905 16.908L33.0735 5.05737L33.5764 3.59644L32.3127 4.48511L27.9436 7.55737L27.6311 7.7771L27.762 8.13745L28.5725 10.3699C27.4872 11.0995 26.0227 10.8686 25.2112 9.86206L26.9729 8.16284L27.2131 7.9314L27.092 7.62085L24.8254 1.81812L24.5217 1.04175L23.9797 1.67456L20.1575 6.13354L19.928 6.40015L20.1018 6.70581L21.5969 9.34253L21.3889 9.5564C20.4009 10.5716 18.7695 10.5716 17.7815 9.5564L17.5725 9.34351L19.0696 6.70581L19.2424 6.40015L19.0139 6.13354L15.1917 1.67456L14.6487 1.04175L14.3459 1.81812L12.0793 7.62085L11.9583 7.9314L12.1985 8.16284L13.9592 9.86206C13.4691 10.4704 12.7395 10.7965 11.9973 10.7966C11.5144 10.7966 11.0268 10.6575 10.5979 10.3689L11.4094 8.13745L11.5403 7.7771L11.2268 7.55737L6.85767 4.48511L5.59497 3.59644L6.0979 5.05737L10.1868 16.9207L10.3518 17.3982L10.8274 17.2283Z"
        fill="url(#paint0_linear_94_1519)" stroke="#803100" />
    <path
        d="M11.4031 19.0503C13.6059 18.3547 16.465 17.9302 19.6042 17.9302C22.7035 17.9302 25.5296 18.3431 27.7166 19.0229L28.1726 19.1646L28.3357 18.7153L28.7625 17.5376L28.9373 17.0571L28.4529 16.8931C26.0897 16.0928 22.9883 15.6148 19.6042 15.6147C16.1971 15.6147 13.0719 16.1017 10.7019 16.9126L10.2351 17.0718L10.3884 17.5405L10.7771 18.729L10.9314 19.1997L11.4031 19.0503Z"
        fill="url(#paint1_linear_94_1519)" stroke="#803100" />
    <path
        d="M20 57C23 56 26.2 53.4 28 52C36.2 45 40 40 40 32C40 26 35 21 29 21C25.2 21 21.4 23 20 26C18.6 23 14.8 21 11 21C5 21 0 26 0 32C0 40 3.8 45 12 52C13.8 53.4 17 56 20 57Z"
        fill="url(#paint2_linear_94_1519)" />
    <path
        d="M20.0435 52.9899C22.6364 52.0865 25.356 49.8885 26.8876 48.7025C33.8462 42.7986 37.0178 38.649 36.7763 32.2091C36.5951 27.3792 32.0722 23.5182 26.8259 23.715C23.5032 23.8397 20.2409 25.5743 19.1074 28.0352C17.7926 25.6661 14.4096 24.1808 11.0869 24.3054C5.84062 24.5022 1.61968 28.6912 1.80086 33.5211C2.04243 39.961 5.51608 43.8613 12.8974 49.2273C14.5136 50.2953 17.3901 52.2833 20.0435 52.9899Z"
        fill="url(#paint3_linear_94_1519)" />
    <path
        d="M11 22C5.55228 22 1 26.5523 1 32C1 35.8175 1.90002 38.8812 3.77051 41.8408C5.66025 44.8309 8.56202 47.7474 12.6377 51.2275C14.426 52.6192 17.3016 54.9375 20 55.9385C22.6987 54.9374 25.575 52.6191 27.3633 51.2275C31.4387 47.7476 34.3398 44.8307 36.2295 41.8408C38.1 38.8812 39 35.8175 39 32C39 26.5523 34.4477 22 29 22C25.4778 22 22.0998 23.8654 20.9062 26.4229L20 28.3643L19.0938 26.4229C17.9002 23.8654 14.5222 22 11 22Z"
        stroke="#520000" stroke-width="2" />
    <ellipse cx="11" cy="27" rx="3" ry="2" fill="white" />
    <circle cx="7" cy="30" r="1" fill="white" />
    <defs>
        <linearGradient id="paint0_linear_94_1519" x1="19.5855" y1="1.99995" x2="19.5855"
            y2="16.7576" gradientUnits="userSpaceOnUse">
            <stop stop-color="#FFD900" />
            <stop offset="1" stop-color="#FD6200" />
        </linearGradient>
        <linearGradient id="paint1_linear_94_1519" x1="19.5785" y1="16.1151" x2="19.5785"
            y2="18.5737" gradientUnits="userSpaceOnUse">
            <stop stop-color="#FFD900" />
            <stop offset="1" stop-color="#FD6200" />
        </linearGradient>
        <linearGradient id="paint2_linear_94_1519" x1="5" y1="25" x2="29" y2="50"
            gradientUnits="userSpaceOnUse">
            <stop stop-color="#FF0000" />
            <stop offset="1" stop-color="#BD0909" />
        </linearGradient>
        <linearGradient id="paint3_linear_94_1519" x1="14.9999" y1="35.5" x2="25.9355" y2="48.4022"
            gradientUnits="userSpaceOnUse">
            <stop offset="0.62" stop-color="white" stop-opacity="0" />
            <stop offset="1" stop-color="white" stop-opacity="0.65" />
        </linearGradient>
    </defs>
</svg>