<svg width="40" height="36" viewBox="0 0 40 36" fill="none" xmlns="http://www.w3.org/2000/svg">
    <path
        d="M11 1C5.55228 1 1 5.55228 1 11C1 14.8175 1.90002 17.8812 3.77051 20.8408C5.66025 23.8309 8.56202 26.7474 12.6377 30.2275C14.426 31.6192 17.3016 33.9375 20 34.9385C22.6987 33.9374 25.575 31.6191 27.3633 30.2275C31.4387 26.7476 34.3398 23.8307 36.2295 20.8408C38.1 17.8812 39 14.8175 39 11C39 5.55228 34.4477 1 29 1C25.4778 1 22.0998 2.86535 20.9062 5.42285L20 7.36426L19.0938 5.42285C17.9002 2.86535 14.5222 1 11 1Z"
        fill="url(#paint0_linear_94_1815)" stroke="#E1E1E1" stroke-width="2" />
    <path opacity="0.5"
        d="M29 2.5C33.6193 2.5 37.5 6.38071 37.5 11C37.5 14.5435 36.6755 17.3276 34.9619 20.0391C33.2019 22.8239 30.4529 25.6142 26.4219 29.0586C26.3252 29.1338 26.227 29.2122 26.126 29.291C24.4201 30.6217 22.1434 32.3897 20 33.3203C17.8567 32.3897 15.5799 30.6217 13.874 29.291C13.7728 29.212 13.674 29.134 13.5771 29.0586C9.54646 25.6144 6.79799 22.8237 5.03809 20.0391C3.3245 17.3276 2.5 14.5435 2.5 11C2.5 6.38071 6.38071 2.5 11 2.5C14.1037 2.5 16.8499 4.16239 17.7344 6.05762L19.5469 9.94043L20 10.9121L20.4531 9.94043L22.2656 6.05762C23.1501 4.16239 25.8963 2.5 29 2.5Z"
        stroke="white" />
    <defs>
        <linearGradient id="paint0_linear_94_1815" x1="20" y1="0" x2="20" y2="36"
            gradientUnits="userSpaceOnUse">
            <stop stop-color="#F1F1F1" />
            <stop offset="1" stop-color="#EBEAEA" />
        </linearGradient>
    </defs>
</svg>