<svg width="40" height="36" viewBox="0 0 40 36" fill="none" xmlns="http://www.w3.org/2000/svg">
    <path
        d="M11 1C5.55228 1 1 5.55228 1 11C1 14.8175 1.90002 17.8812 3.77051 20.8408C5.66025 23.8309 8.56202 26.7474 12.6377 30.2275C14.426 31.6192 17.3016 33.9375 20 34.9385C22.6987 33.9374 25.575 31.6191 27.3633 30.2275C31.4387 26.7476 34.3398 23.8307 36.2295 20.8408C38.1 17.8812 39 14.8175 39 11C39 5.55228 34.4477 1 29 1C25.4778 1 22.0998 2.86535 20.9062 5.42285L20 7.36426L19.0938 5.42285C17.9002 2.86535 14.5222 1 11 1Z"
        fill="url(#paint0_linear_94_1707)" stroke="#520000" stroke-width="2" />
    <path fill-rule="evenodd" clip-rule="evenodd"
        d="M20 5C18.6 2 14.8 0 11 0C5 0 0 5 0 11C0 19 3.8 24 12 31C12.1226 31.0954 12.2517 31.1963 12.3868 31.3019C14.235 32.7468 17.2043 35.0681 20 36C22.7957 35.0681 25.765 32.7468 27.6132 31.3019C27.7483 31.1963 27.8774 31.0954 28 31C33.9545 25.9169 37.5888 21.8884 39.1328 17H20V5Z"
        fill="url(#paint1_linear_94_1707)" />
    <ellipse cx="11" cy="6" rx="3" ry="2" fill="white" />
    <circle cx="7" cy="9" r="1" fill="white" />
    <path
        d="M20.3546 7.88889C19.2097 5.55556 16.1024 4 12.995 4C8.08864 4 4 7.88889 4 12.5556C4 18.7778 7.10737 22.6667 13.8127 28.1111C13.913 28.1853 14.0186 28.2638 14.129 28.3459C15.6404 29.4697 18.0685 31.2752 20.3546 32C22.6407 31.2752 25.0688 29.4697 26.5801 28.3459C26.6906 28.2638 26.7961 28.1853 26.8964 28.1111C31.7656 24.1576 34.7375 21.0243 36 17.2222H20.3546V7.88889Z"
        fill="url(#paint2_linear_94_1707)" />
    <path
        d="M11 1C5.55228 1 1 5.55228 1 11C1 14.8175 1.90002 17.8812 3.77051 20.8408C5.66025 23.8309 8.56202 26.7474 12.6377 30.2275C14.426 31.6192 17.3016 33.9375 20 34.9385C22.6987 33.9374 25.575 31.6191 27.3633 30.2275C31.4387 26.7476 34.3398 23.8307 36.2295 20.8408C38.1 17.8812 39 14.8175 39 11C39 5.55228 34.4477 1 29 1C25.4778 1 22.0998 2.86535 20.9062 5.42285L20 7.36426L19.0938 5.42285C17.9002 2.86535 14.5222 1 11 1Z"
        stroke="#520000" stroke-width="2" />
    <defs>
        <linearGradient id="paint0_linear_94_1707" x1="20" y1="0" x2="20" y2="36"
            gradientUnits="userSpaceOnUse">
            <stop stop-color="#290000" />
            <stop offset="1" stop-color="#915555" />
        </linearGradient>
        <linearGradient id="paint1_linear_94_1707" x1="5" y1="4" x2="29" y2="29"
            gradientUnits="userSpaceOnUse">
            <stop stop-color="#FF0000" />
            <stop offset="1" stop-color="#BD0909" />
        </linearGradient>
        <linearGradient id="paint2_linear_94_1707" x1="8.08864" y1="7.11111" x2="26.6939"
            y2="27.4871" gradientUnits="userSpaceOnUse">
            <stop offset="0.675" stop-color="white" stop-opacity="0" />
            <stop offset="1" stop-color="white" stop-opacity="0.65" />
        </linearGradient>
    </defs>
</svg>