<svg width="40" height="36" viewBox="0 0 40 36" fill="none" xmlns="http://www.w3.org/2000/svg">
    <path
        d="M20 36C23 35 26.2 32.4 28 31C36.2 24 40 19 40 11C40 5 35 0 29 0C25.2 0 21.4 2 20 5C18.6 2 14.8 0 11 0C5 0 0 5 0 11C0 19 3.8 24 12 31C13.8 32.4 17 35 20 36Z"
        fill="url(#paint0_linear_94_1517)" />
    <path
        d="M20.0435 31.9899C22.6364 31.0865 25.356 28.8885 26.8876 27.7025C33.8462 21.7986 37.0178 17.649 36.7763 11.2091C36.5951 6.37919 32.0722 2.51825 26.8259 2.71505C23.5032 2.83969 20.2409 4.5743 19.1074 7.03519C17.7926 4.66614 14.4096 3.18081 11.0869 3.30545C5.84062 3.50224 1.61968 7.69119 1.80086 12.5211C2.04243 18.961 5.51608 22.8613 12.8974 28.2273C14.5136 29.2953 17.3901 31.2833 20.0435 31.9899Z"
        fill="url(#paint1_linear_94_1517)" />
    <path
        d="M11 1C5.55228 1 1 5.55228 1 11C1 14.8175 1.90002 17.8812 3.77051 20.8408C5.66025 23.8309 8.56202 26.7474 12.6377 30.2275C14.426 31.6192 17.3016 33.9375 20 34.9385C22.6987 33.9374 25.575 31.6191 27.3633 30.2275C31.4387 26.7476 34.3398 23.8307 36.2295 20.8408C38.1 17.8812 39 14.8175 39 11C39 5.55228 34.4477 1 29 1C25.4778 1 22.0998 2.86535 20.9062 5.42285L20 7.36426L19.0938 5.42285C17.9002 2.86535 14.5222 1 11 1Z"
        stroke="#520000" stroke-width="2" />
    <ellipse cx="11" cy="6" rx="3" ry="2" fill="white" />
    <circle cx="7" cy="9" r="1" fill="white" />
    <defs>
        <linearGradient id="paint0_linear_94_1517" x1="5" y1="4" x2="29" y2="29"
            gradientUnits="userSpaceOnUse">
            <stop stop-color="#FF0000" />
            <stop offset="1" stop-color="#BD0909" />
        </linearGradient>
        <linearGradient id="paint1_linear_94_1517" x1="14.9999" y1="14.5" x2="25.9355" y2="27.4022"
            gradientUnits="userSpaceOnUse">
            <stop offset="0.62" stop-color="white" stop-opacity="0" />
            <stop offset="1" stop-color="white" stop-opacity="0.65" />
        </linearGradient>
    </defs>
</svg>