<svg width="26" height="29" viewBox="0 0 26 29" fill="none" xmlns="http://www.w3.org/2000/svg">
    <path
            d="M8.75 7.5C8.75 7.5 8.75 8.427 8.75 9.35654C8.75 11.5657 10.5409 13.3565 12.75 13.3565C14.9591 13.3565 16.75 11.5657 16.75 9.35654C16.75 8.856 16.75 7.5 16.75 7.5"        stroke="#6D6C6C" stroke-width="1.5" />
    <path
        d="M4.75 7.5C4.75 7.5 4.75 8.427 4.75 9.35693C4.75 13.7752 8.33172 17.3569 12.75 17.3569C17.1683 17.3569 20.75 13.7752 20.75 9.35693C20.75 8.85645 20.75 7.5 20.75 7.5"
        stroke="#6D6C6C" stroke-width="1.5" />
    <path
        d="M0.75 7.5C0.75 7.5 0.75 8.35645 0.75 9.35652C0.75 15.9839 6.12258 21.3565 12.75 21.3565C19.3774 21.3565 24.75 15.9839 24.75 9.35652C24.75 8.35645 24.75 7.5 24.75 7.5"
        stroke="#6D6C6C" stroke-width="1.5" />
    <path d="M12.75 7.5V27.5" stroke="#6D6C6C" stroke-width="1.5" />
    <path d="M6.75 27.3564H18.75" stroke="#6D6C6C" stroke-width="1.5" />
    <path
        d="M5.5 4.7C5.5 6.35685 5.25 6.5 4.75 6.5C4.25 6.5 4 6.35685 4 4.7C4 3.04315 4.75 0 4.75 0C4.75 0 5.5 3.04315 5.5 4.7Z"
        fill="#6D6C6C" />
</svg>