<?xml version="1.0" encoding="UTF-8" standalone="no"?>
<!-- Created with Inkscape (http://www.inkscape.org/) -->

<svg
   version="1.1"
   id="svg4545"
   width="682.66669"
   height="682.66669"
   viewBox="0 0 682.66669 682.66669"
   sodipodi:docname="first-pl-o.svg"
   inkscape:version="1.3.2 (091e20e, 2023-11-25)"
   xmlns:inkscape="http://www.inkscape.org/namespaces/inkscape"
   xmlns:sodipodi="http://sodipodi.sourceforge.net/DTD/sodipodi-0.dtd"
   xmlns="http://www.w3.org/2000/svg"
   xmlns:svg="http://www.w3.org/2000/svg">
  <sodipodi:namedview
     id="namedview2"
     pagecolor="#ffffff"
     bordercolor="#000000"
     borderopacity="0.25"
     inkscape:showpageshadow="2"
     inkscape:pageopacity="0.0"
     inkscape:pagecheckerboard="0"
     inkscape:deskcolor="#d1d1d1"
     inkscape:zoom="0.34570311"
     inkscape:cx="339.88702"
     inkscape:cy="341.33334"
     inkscape:window-width="1728"
     inkscape:window-height="1051"
     inkscape:window-x="0"
     inkscape:window-y="1730"
     inkscape:window-maximized="0"
     inkscape:current-layer="svg4545" />
  <defs
     id="defs4549">
    <mask
       maskUnits="userSpaceOnUse"
       id="mask77">
      <g
         id="g83"
         transform="matrix(0.75000002,0,0,-0.75000002,-429,365.35551)">
        <g
           id="g82">
          <g
             id="g81">
            <g
               id="g80">
              <g
                 id="g79">
                <rect
                   id="rect77"
                   x="0"
                   y="0"
                   width="100%"
                   height="100%"
                   fill="#ffffff" />
                <g
                   transform="matrix(1.3333333,0,0,-1.3333333,0,682.66667)"
                   id="g78" />
              </g>
            </g>
          </g>
        </g>
      </g>
    </mask>
    <mask
       maskUnits="userSpaceOnUse"
       id="mask84">
      <g
         id="g90"
         transform="matrix(0.75000002,0,0,-0.75000002,-188.5,219.73932)">
        <g
           id="g89">
          <g
             id="g88">
            <g
               id="g87">
              <g
                 id="g86">
                <rect
                   id="rect84"
                   x="0"
                   y="0"
                   width="100%"
                   height="100%"
                   fill="#ffffff" />
                <g
                   transform="matrix(1.3333333,0,0,-1.3333333,0,682.66667)"
                   id="g85" />
              </g>
            </g>
          </g>
        </g>
      </g>
    </mask>
    <mask
       maskUnits="userSpaceOnUse"
       id="mask91">
      <g
         id="g97"
         transform="matrix(0.75000002,0,0,-0.75000002,-158,365.35551)">
        <g
           id="g96">
          <g
             id="g95">
            <g
               id="g94">
              <g
                 id="g93">
                <rect
                   id="rect91"
                   x="0"
                   y="0"
                   width="100%"
                   height="100%"
                   fill="#ffffff" />
                <g
                   transform="matrix(1.3333333,0,0,-1.3333333,0,682.66667)"
                   id="g92" />
              </g>
            </g>
          </g>
        </g>
      </g>
    </mask>
    <mask
       maskUnits="userSpaceOnUse"
       id="mask98">
      <g
         id="g104"
         transform="matrix(0.75000002,0,0,-0.75000002,-203.2422,230.04202)">
        <g
           id="g103">
          <g
             id="g102">
            <g
               id="g101">
              <g
                 id="g100">
                <rect
                   id="rect98"
                   x="0"
                   y="0"
                   width="100%"
                   height="100%"
                   fill="#ffffff" />
                <g
                   transform="matrix(1.3333333,0,0,-1.3333333,0,682.66667)"
                   id="g99" />
              </g>
            </g>
          </g>
        </g>
      </g>
    </mask>
    <mask
       maskUnits="userSpaceOnUse"
       id="mask105">
      <g
         id="g111"
         transform="matrix(0.75000002,0,0,-0.75000002,-226,373.35551)">
        <g
           id="g110">
          <g
             id="g109">
            <g
               id="g108">
              <g
                 id="g107">
                <rect
                   id="rect105"
                   x="0"
                   y="0"
                   width="100%"
                   height="100%"
                   fill="#ffffff" />
                <g
                   transform="matrix(1.3333333,0,0,-1.3333333,0,682.66667)"
                   id="g106" />
              </g>
            </g>
          </g>
        </g>
      </g>
    </mask>
    <mask
       maskUnits="userSpaceOnUse"
       id="mask112">
      <g
         id="g118"
         transform="matrix(0.75000002,0,0,-0.75000002,-497,373.35551)">
        <g
           id="g117">
          <g
             id="g116">
            <g
               id="g115">
              <g
                 id="g114">
                <rect
                   id="rect112"
                   x="0"
                   y="0"
                   width="100%"
                   height="100%"
                   fill="#ffffff" />
                <g
                   transform="matrix(1.3333333,0,0,-1.3333333,0,682.66667)"
                   id="g113" />
              </g>
            </g>
          </g>
        </g>
      </g>
    </mask>
    <mask
       maskUnits="userSpaceOnUse"
       id="mask119">
      <g
         id="g125"
         transform="matrix(0.75000002,0,0,-0.75000002,-150.5,138.66212)">
        <g
           id="g124">
          <g
             id="g123">
            <g
               id="g122">
              <g
                 id="g121">
                <rect
                   id="rect119"
                   x="0"
                   y="0"
                   width="100%"
                   height="100%"
                   fill="#ffffff" />
                <g
                   transform="matrix(1.3333333,0,0,-1.3333333,0,682.66667)"
                   id="g120" />
              </g>
            </g>
          </g>
        </g>
      </g>
    </mask>
    <mask
       maskUnits="userSpaceOnUse"
       id="mask126">
      <g
         id="g132"
         transform="matrix(0.75000002,0,0,-0.75000002,-53,454.43262)">
        <g
           id="g131">
          <g
             id="g130">
            <g
               id="g129">
              <g
                 id="g128">
                <rect
                   id="rect126"
                   x="0"
                   y="0"
                   width="100%"
                   height="100%"
                   fill="#ffffff" />
                <g
                   transform="matrix(1.3333333,0,0,-1.3333333,0,682.66667)"
                   id="g127" />
              </g>
            </g>
          </g>
        </g>
      </g>
    </mask>
    <mask
       maskUnits="userSpaceOnUse"
       id="mask133">
      <g
         id="g139"
         transform="matrix(0.75000002,0,0,-0.75000002,-324,454.43262)">
        <g
           id="g138">
          <g
             id="g137">
            <g
               id="g136">
              <g
                 id="g135">
                <rect
                   id="rect133"
                   x="0"
                   y="0"
                   width="100%"
                   height="100%"
                   fill="#ffffff" />
                <g
                   transform="matrix(1.3333333,0,0,-1.3333333,0,682.66667)"
                   id="g134" />
              </g>
            </g>
          </g>
        </g>
      </g>
    </mask>
    <mask
       maskUnits="userSpaceOnUse"
       id="mask140">
      <g
         id="g146"
         transform="matrix(0.75000002,0,0,-0.75000002,-293.5,130.66212)">
        <g
           id="g145">
          <g
             id="g144">
            <g
               id="g143">
              <g
                 id="g142">
                <rect
                   id="rect140"
                   x="0"
                   y="0"
                   width="100%"
                   height="100%"
                   fill="#ffffff" />
                <g
                   transform="matrix(1.3333333,0,0,-1.3333333,0,682.66667)"
                   id="g141" />
              </g>
            </g>
          </g>
        </g>
      </g>
    </mask>
    <mask
       maskUnits="userSpaceOnUse"
       id="mask147">
      <g
         id="g153"
         transform="matrix(0.75000002,0,0,-0.75000002,-285.9844,373.35551)">
        <g
           id="g152">
          <g
             id="g151">
            <g
               id="g150">
              <g
                 id="g149">
                <rect
                   id="rect147"
                   x="0"
                   y="0"
                   width="100%"
                   height="100%"
                   fill="#ffffff" />
                <g
                   transform="matrix(1.3333333,0,0,-1.3333333,0,682.66667)"
                   id="g148" />
              </g>
            </g>
          </g>
        </g>
      </g>
    </mask>
    <mask
       maskUnits="userSpaceOnUse"
       id="mask154">
      <g
         id="g160"
         transform="matrix(0.75000002,0,0,-0.75000002,-308.7578,230.04202)">
        <g
           id="g159">
          <g
             id="g158">
            <g
               id="g157">
              <g
                 id="g156">
                <rect
                   id="rect154"
                   x="0"
                   y="0"
                   width="100%"
                   height="100%"
                   fill="#ffffff" />
                <g
                   transform="matrix(1.3333333,0,0,-1.3333333,0,682.66667)"
                   id="g155" />
              </g>
            </g>
          </g>
        </g>
      </g>
    </mask>
  </defs>
  <path
     id="path172"
     style="stroke-miterlimit:10"
     d="M 341.33398 24.216797 C 252.83752 24.216797 180.66602 96.386352 180.66602 184.88281 C 180.66602 237.00312 205.71504 283.44061 244.37305 312.82617 L 223.04102 349.77344 C 203.8472 341.64193 182.76563 337.14063 160.66602 337.14062 C 72.169772 337.14062 0 409.30903 0 497.80664 C 0 586.3031 72.169545 658.47461 160.66602 658.47461 C 242.38701 658.47461 310.13828 596.91696 320.04102 517.80664 L 362.62695 517.80664 C 372.52944 596.91696 440.27899 658.47461 522 658.47461 C 610.49646 658.47461 682.66602 586.3031 682.66602 497.80664 C 682.66602 409.30903 610.49623 337.14062 522 337.14062 C 499.90037 337.14062 478.81863 341.64193 459.625 349.77344 L 438.29492 312.82617 C 476.95227 283.4406 502 237.00304 502 184.88281 C 502 96.386352 429.83046 24.216797 341.33398 24.216797 z M 341.33398 64.216797 C 408.21291 64.216797 462 118.0039 462 184.88281 C 462 207.29538 455.93589 228.22207 445.38672 246.16211 C 437.34737 228.00494 421.79618 213.8149 402.75391 207.62109 C 408.21595 197.6713 411.33398 186.28285 411.33398 174.2168 C 411.33398 135.79403 379.75676 104.2168 341.33398 104.2168 C 302.91121 104.2168 271.33398 135.79403 271.33398 174.2168 C 271.33398 186.28285 274.45202 197.6713 279.91406 207.62109 C 260.87114 213.81511 245.31841 228.00601 237.2793 246.16406 C 226.7293 228.22371 220.66602 207.296 220.66602 184.88281 C 220.66602 118.0039 274.45508 64.216797 341.33398 64.216797 z M 341.33398 144.2168 C 358.13766 144.2168 371.33398 157.41312 371.33398 174.2168 C 371.33398 191.02232 358.13831 204.2168 341.33398 204.2168 C 324.52967 204.2168 311.33398 191.02232 311.33398 174.2168 C 311.33398 157.41312 324.53031 144.2168 341.33398 144.2168 z M 301.33398 204.2168 C 300.26026 204.2168 299.19335 204.25005 298.13086 204.29883 C 299.1931 204.24897 300.26004 204.2168 301.33398 204.2168 z M 381.33398 204.2168 C 382.40793 204.2168 383.47486 204.24897 384.53711 204.29883 C 383.47462 204.25005 382.40771 204.2168 381.33398 204.2168 z M 296.90625 204.37305 C 296.29643 204.41185 295.68965 204.45908 295.08398 204.51367 C 295.68928 204.45806 296.29671 204.41265 296.90625 204.37305 z M 385.76172 204.37305 C 386.37126 204.41265 386.97869 204.45806 387.58398 204.51367 C 386.97832 204.45908 386.37154 204.41185 385.76172 204.37305 z M 293.42383 204.68164 C 293.05585 204.72377 292.69051 204.77632 292.32422 204.82422 C 292.69041 204.77555 293.05593 204.7245 293.42383 204.68164 z M 389.24414 204.68164 C 389.61204 204.7245 389.97756 204.77555 390.34375 204.82422 C 389.97746 204.77632 389.61212 204.72377 389.24414 204.68164 z M 301.33398 244.2168 L 381.33398 244.2168 C 398.13951 244.2168 411.33398 257.41247 411.33398 274.2168 L 411.33398 283.2793 C 391.61844 297.29613 367.48746 305.54883 341.33398 305.54883 C 315.18052 305.54883 291.04989 297.29613 271.33398 283.2793 L 271.33398 274.2168 C 271.33398 257.41247 284.52846 244.2168 301.33398 244.2168 z M 278.96094 332.91602 C 298.1543 341.04707 319.23501 345.54883 341.33398 345.54883 C 363.43298 345.54883 384.51385 341.04708 403.70703 332.91602 L 425.03711 369.86523 C 391.40633 395.43074 368.12139 433.9118 362.62695 477.80664 L 320.04102 477.80664 C 314.54642 433.91172 291.26027 395.43074 257.62891 369.86523 L 278.96094 332.91602 z M 160.66602 377.14062 C 227.54515 377.14062 281.33398 430.92621 281.33398 497.80664 C 281.33398 520.21888 275.26659 541.14366 264.7168 559.08398 C 256.67687 540.92877 241.12653 526.74017 222.08594 520.54688 C 227.54849 510.59673 230.66602 499.20729 230.66602 487.14062 C 230.66602 448.71704 199.08814 417.14063 160.66602 417.14062 C 122.24388 417.14062 90.666016 448.71704 90.666016 487.14062 C 90.666016 499.20729 93.783545 510.59673 99.246094 520.54688 C 80.206329 526.7399 64.657413 540.92795 56.617188 559.08203 C 46.068218 541.14202 40 520.21827 40 497.80664 C 40 430.92621 93.786867 377.14062 160.66602 377.14062 z M 522 377.14062 C 588.87914 377.14062 642.66602 430.92621 642.66602 497.80664 C 642.66602 520.21965 636.6008 541.14705 626.05078 559.08789 C 618.01128 540.93112 602.46165 526.74054 583.41992 520.54688 C 588.88247 510.59673 592 499.20729 592 487.14062 C 592 448.71704 560.42213 417.14063 522 417.14062 C 483.57787 417.14062 452 448.71704 452 487.14062 C 452 499.20729 455.11753 510.59673 460.58008 520.54688 C 441.53835 526.74054 425.98872 540.93112 417.94922 559.08789 C 407.3992 541.14705 401.33398 520.21965 401.33398 497.80664 C 401.33398 430.92621 455.12086 377.14063 522 377.14062 z M 160.66602 457.14062 C 177.47033 457.14062 190.66602 470.3351 190.66602 487.14062 C 190.66602 503.94616 177.47033 517.14062 160.66602 517.14062 C 143.86169 517.14063 130.66602 503.94616 130.66602 487.14062 C 130.66602 470.3351 143.86169 457.14063 160.66602 457.14062 z M 522 457.14062 C 538.80431 457.14062 552 470.3351 552 487.14062 C 552 503.94616 538.80431 517.14062 522 517.14062 C 505.19569 517.14063 492 503.94616 492 487.14062 C 492 470.3351 505.19569 457.14063 522 457.14062 z M 120.66602 517.14258 C 119.59231 517.14258 118.52536 517.17583 117.46289 517.22461 C 118.52513 517.17475 119.59208 517.14258 120.66602 517.14258 z M 200.66602 517.14258 C 201.73995 517.14258 202.8069 517.17475 203.86914 517.22461 C 202.80667 517.17583 201.73972 517.14258 200.66602 517.14258 z M 482 517.14258 C 480.9263 517.14258 479.85935 517.17583 478.79688 517.22461 C 479.85912 517.17475 480.92607 517.14258 482 517.14258 z M 562 517.14258 C 563.07393 517.14258 564.14088 517.17475 565.20312 517.22461 C 564.14065 517.17583 563.0737 517.14258 562 517.14258 z M 116.23828 517.29883 C 115.62847 517.33763 115.02167 517.38487 114.41602 517.43945 C 115.02131 517.38384 115.62874 517.33843 116.23828 517.29883 z M 205.09375 517.29883 C 205.70329 517.33843 206.31072 517.38384 206.91602 517.43945 C 206.31036 517.38487 205.70356 517.33763 205.09375 517.29883 z M 477.57227 517.29883 C 476.96245 517.33763 476.35566 517.38487 475.75 517.43945 C 476.3553 517.38384 476.96272 517.33843 477.57227 517.29883 z M 566.42773 517.29883 C 567.03728 517.33843 567.6447 517.38384 568.25 517.43945 C 567.64434 517.38487 567.03755 517.33763 566.42773 517.29883 z M 112.75586 517.60742 C 112.38788 517.64955 112.02254 517.7021 111.65625 517.75 C 112.02245 517.70133 112.38796 517.65028 112.75586 517.60742 z M 208.57617 517.60742 C 208.94407 517.65028 209.30959 517.70133 209.67578 517.75 C 209.30949 517.7021 208.94415 517.64955 208.57617 517.60742 z M 474.08984 517.60742 C 473.72187 517.64955 473.35652 517.7021 472.99023 517.75 C 473.35643 517.70133 473.72194 517.65028 474.08984 517.60742 z M 569.91016 517.60742 C 570.27806 517.65028 570.64357 517.70133 571.00977 517.75 C 570.64348 517.7021 570.27813 517.64955 569.91016 517.60742 z M 120.66602 557.14258 L 200.66602 557.14258 C 217.47219 557.14258 230.66602 570.3364 230.66602 587.14258 L 230.66602 596.20312 C 210.95001 610.22073 186.8196 618.47461 160.66602 618.47461 C 134.51242 618.47461 110.38166 610.22073 90.666016 596.20312 L 90.666016 587.14258 C 90.666016 570.3364 103.85984 557.14258 120.66602 557.14258 z M 482 557.14258 L 562 557.14258 C 578.80617 557.14258 592 570.3364 592 587.14258 L 592 596.20312 C 572.28436 610.22073 548.15358 618.47461 522 618.47461 C 495.84641 618.47461 471.71564 610.22073 452 596.20312 L 452 587.14258 C 452 570.3364 465.19383 557.14258 482 557.14258 z " />
</svg>
