<svg id="Capa_1" enable-background="new 0 0 512 512" height="512" viewBox="0 0 512 512" width="512" xmlns="http://www.w3.org/2000/svg"><g id="Question_48_"><g><path d="m296.365 512h-210v-176.568c-38.214-36.744-60-87.541-60-140.432 0-107.523 87.477-195 195-195 106.316 0 193.033 85.531 194.967 191.393l69.303 138.607h-69.271v45c0 24.813-20.187 45-45 45h-75v92zm-180-30h150v-92h105c8.271 0 15-6.729 15-15v-75h50.729l-50.729-101.459v-3.541c0-90.981-74.019-165-165-165s-165 74.019-165 165c0 46.639 20.052 91.371 55.015 122.727l4.985 4.471z"/></g><g><path d="m236.365 210h-30v-23.027c0-16.014 8.617-30.946 22.489-38.971 4.633-2.68 7.511-7.662 7.511-13.002 0-8.271-6.729-15-15-15s-15 6.729-15 15h-30c0-24.813 20.187-45 45-45s45 20.187 45 45c0 16.014-8.617 30.946-22.489 38.97-4.633 2.68-7.511 7.663-7.511 13.003z"/></g><g><path d="m206.365 240h30v30h-30z"/></g></g></svg>