<?xml version="1.0" encoding="UTF-8" standalone="no"?>
<svg
   version="1.1"
   id="Capa_1"
   x="0px"
   y="0px"
   viewBox="0 0 463.66797 512"
   xml:space="preserve"
   width="463.66797"
   height="512"
   sodipodi:docname="sec-sing-fem-o.svg"
   inkscape:version="1.3.2 (091e20e, 2023-11-25)"
   xmlns:inkscape="http://www.inkscape.org/namespaces/inkscape"
   xmlns:sodipodi="http://sodipodi.sourceforge.net/DTD/sodipodi-0.dtd"
   xmlns="http://www.w3.org/2000/svg"
   xmlns:svg="http://www.w3.org/2000/svg"><defs
   id="defs7" /><sodipodi:namedview
   id="namedview7"
   pagecolor="#ffffff"
   bordercolor="#000000"
   borderopacity="0.25"
   inkscape:showpageshadow="2"
   inkscape:pageopacity="0.0"
   inkscape:pagecheckerboard="0"
   inkscape:deskcolor="#d1d1d1"
   inkscape:zoom="1.0078148"
   inkscape:cx="287.25516"
   inkscape:cy="253.02268"
   inkscape:window-width="1728"
   inkscape:window-height="1051"
   inkscape:window-x="0"
   inkscape:window-y="1730"
   inkscape:window-maximized="0"
   inkscape:current-layer="Capa_1" />







<path
   d="M 231.83398,0 C 153.25155,0 89.226564,64.024991 89.226564,142.60742 v 17.58008 c -4.02236,7.56072 -6.32031,16.1578 -6.32031,25.26172 0,21.78032 13.2159,40.40534 31.933586,48.94726 -12.98642,3.15685 -25.323326,9.73041 -35.412106,19.81836 l -53.214844,53.21289 10.607422,10.60743 c 29.261168,29.26116 77.156798,29.26116 106.417968,0 l 2.89843,-2.89844 c 7.16671,8.97419 15.58034,16.78519 24.95704,23.20117 l -5.27735,26.98438 -81.175776,23.18359 C 55.147566,396.9282 31.620288,419.29634 21.71875,448.32617 L 0,512 h 463.66796 l -21.65429,-63.60156 c -9.89783,-29.07108 -33.45769,-51.4704 -62.99219,-59.88672 l -81.15234,-23.12695 -5.28711,-27.04883 c 9.37402,-6.41471 17.78596,-14.22373 24.95117,-23.19532 l 2.87109,2.8711 c 28.94189,29.07344 77.15814,29.50239 106.47852,-0.0117 l 10.53711,-10.60547 -53.17969,-53.17773 c -10.08589,-10.08672 -22.41945,-16.66045 -35.40234,-19.81836 18.71982,-8.54083 31.9375,-27.16567 31.9375,-48.94727 0,-9.11331 -2.30379,-17.71857 -6.33399,-25.28515 v -17.5586 C 374.4414,64.024991 310.41641,0 231.83398,0 Z m 0,30 c 59.53641,0 107.90416,45.809359 112.18555,104.21875 -4.45818,-1.52685 -9.15751,-2.52472 -14.04493,-2.82617 l -0.46093,-0.0293 h -0.46289 c -25.9819,8.9e-4 -51.26651,-8.35883 -72.125,-23.84765 l -25.0918,-18.630864 -25.0918,18.630864 c -20.85887,15.48732 -46.1422,23.84765 -72.12109,23.84765 h -0.46484 l -0.4629,0.0293 c -4.88749,0.30272 -9.5869,1.30202 -14.04492,2.83008 C 123.92796,75.811416 172.29625,30 231.83398,30 Z m 0,96.25 7.20703,5.35156 c 26.02742,19.3271 57.58977,29.76283 90.00977,29.76172 l -0.92383,-0.0273 c 12.72453,0.78484 22.64844,11.10398 22.64844,24.11523 0,13.01126 -9.92391,23.33039 -22.64844,24.11524 l -14.07617,0.86914 v 28.44336 c 0,49.53511 -37.1541,88.48046 -82.21485,88.48046 -45.0619,0 -82.21484,-38.94518 -82.21484,-88.48046 V 210.4375 l -14.07227,-0.87109 c -12.72085,-0.78792 -22.64257,-11.10766 -22.64257,-24.11719 0,-13.00954 9.92172,-23.32732 22.64257,-24.11524 l -0.92773,0.0293 c 32.41699,0 63.97882,-10.43712 90.00586,-29.76172 z M 122.10351,263.45508 c 1.77502,8.80459 4.5533,17.21717 8.08203,25.20703 l -8.16015,8.16016 c -14.0494,14.04938 -34.640646,16.82617 -51.472656,8.69335 l 30.087886,-30.08789 c 6.17568,-6.17518 13.61549,-10.11425 21.46289,-11.97265 z m 219.46484,0.002 c 7.84607,1.85882 15.28354,5.79671 21.45704,11.9707 l 30.05273,30.05274 c -16.88495,7.9858 -37.7946,5.04464 -51.41211,-8.63477 l -0.0117,-0.0117 -8.16992,-8.16992 c 3.5289,-7.98981 6.30881,-16.40246 8.08398,-25.20703 z m -142.60546,88.6875 c 10.38614,3.36706 21.41372,5.21484 32.87304,5.21484 11.46049,0 22.48982,-1.84704 32.87696,-5.21484 l 7.24023,37.04883 44.6582,12.72656 c -44.16544,41.8454 -125.33573,41.7687 -169.30273,-0.11328 l 44.42187,-12.68555 z M 115.11523,411.002 c 56.42403,71.2538 177.0972,71.32242 233.74609,0.10938 l 21.9375,6.25195 c 20.0994,5.72765 36.08027,20.92025 42.81641,40.70508 L 421.76367,482 h -54.42383 v -32.67773 h -30 V 482 h -211 V 449.32227 H 96.339844 V 482 H 41.929687 l 8.181641,-23.98828 c 6.738427,-19.75607 22.696738,-34.92852 42.767576,-40.66016 z"
   style="stroke-miterlimit:10"
   id="path7" />















</svg>
