<?xml version="1.0" encoding="UTF-8" standalone="no"?>
<!-- Created with Inkscape (http://www.inkscape.org/) -->

<svg
   version="1.1"
   id="svg333"
   xml:space="preserve"
   width="682.66669"
   height="682.66669"
   viewBox="0 0 682.66669 682.66669"
   sodipodi:docname="sec-pl-fem-o.svg"
   inkscape:version="1.3.2 (091e20e, 2023-11-25)"
   xmlns:inkscape="http://www.inkscape.org/namespaces/inkscape"
   xmlns:sodipodi="http://sodipodi.sourceforge.net/DTD/sodipodi-0.dtd"
   xmlns="http://www.w3.org/2000/svg"
   xmlns:svg="http://www.w3.org/2000/svg"><path
     style="color:#000000;fill:#000000;stroke-miterlimit:10;-inkscape-stroke:none"
     d="m 80,21.333984 c -43.94591,0 -80,36.054091 -80,79.999996 0,30.71303 17.489256,57.57248 43.126953,70.95704 C 41.104733,181.66436 40,191.37025 40,201.33398 v 80 c 0,40.02527 17.056076,75.96853 44.150391,101.38868 C 36.636695,390.39333 0,431.7454 0,481.33398 v 180 h 338.97266 4.7207 338.97266 v -180 c 0,-49.86147 -37.04123,-91.39474 -84.9375,-98.73242 27.35562,-25.33376 44.9375,-61.13263 44.9375,-101.26758 v -80 c 0,-9.96372 -1.10279,-19.66963 -3.125,-29.04296 25.63687,-13.38483 43.125,-40.24462 43.125,-70.95704 0,-43.945906 -36.0541,-79.999996 -80,-79.999996 -30.7867,0 -58.48793,17.169548 -72.21094,43.076172 -9.42394,-1.98995 -19.15727,-3.076172 -29.1211,-3.076172 -77.08321,0 -140,62.916786 -140,139.999996 v 80 c 0,40.02527 17.05608,75.96853 44.15039,101.38868 -26.1229,4.2173 -48.89466,18.60368 -64.15039,38.98632 -15.25551,-20.3826 -38.02774,-34.76877 -64.15039,-38.98632 27.09404,-25.42013 44.15039,-61.36364 44.15039,-101.38868 v -80 c 0,-77.08321 -62.91678,-139.999996 -140,-139.999996 -10.365,0 -20.46821,1.214374 -30.24414,3.363282 C 137.74864,38.927497 110.80918,21.333984 80,21.333984 Z m 0,40 c 13.939758,0 25.95937,7.060375 33.10156,17.669922 C 89.78844,91.874574 70.381101,111.05335 57.449219,134.27148 46.967356,127.10984 40,115.1735 40,101.33398 40,79.005298 57.671312,61.333984 80,61.333984 Z m 522.66602,0 c 22.32868,0 40,17.671315 40,39.999996 0,13.84035 -6.9663,25.77796 -17.44922,32.93946 C 612.16555,110.84035 592.53533,91.496175 568.93359,78.625 576.51195,68.41861 589.01623,61.333984 602.66602,61.333984 Z M 181.33398,101.33398 c 48.61023,0 88.81137,34.20814 98.00977,80 h -38.00977 c -22.32868,0 -40,-17.67131 -40,-40 h -40 c 0,21.7922 -19.0053,40 -41.33398,40 H 82.056641 c 9.481533,-45.62445 50.694069,-80 99.277339,-80 z m 320,0 c 48.58328,0 89.79581,34.37555 99.27735,80 h -37.94531 c -22.32869,0 -41.33204,-18.2078 -41.33204,-40 h -40 c 0,22.32869 -17.67131,40 -40,40 h -38.01171 c 9.1984,-45.79187 49.40149,-80 98.01171,-80 z m -320.1875,92.40235 c 14.70312,16.84682 36.24702,27.59765 60.1875,27.59765 h 40 v 60 c 0,43.61242 -27.88282,80.00789 -66.69921,93.80664 l -13.30079,4.72852 v 21.46484 c 0,11.28386 -8.71614,20 -20,20 -11.28385,0 -21.33398,-9.52086 -21.33398,-20 v -21.46484 l -13.30078,-4.72852 C 107.88282,361.34187 80,324.9464 80,281.33398 v -60 h 40 c 24.04564,0 46.07819,-10.68027 61.14648,-27.59765 z m 320.375,0 c 15.0683,16.91724 37.09901,27.59765 61.14454,27.59765 h 40 v 60 c 0,43.27168 -29.10118,79.96747 -68.03125,93.80664 l -13.30079,4.72852 v 21.46484 c 0,11.28386 -8.71614,20 -20,20 -11.28385,0 -20,-8.71614 -20,-20 V 379.86914 L 468.0332,375.14062 C 429.21681,361.34187 401.33398,324.9464 401.33398,281.33398 v -60 h 40 c 23.94096,0 45.48437,-10.75026 60.1875,-27.59765 z M 100,421.33398 h 23.58594 c 8.58524,23.53576 31.73943,40 57.74804,40 25.89154,0 48.1255,-16.81391 56.45118,-40 h 23.54882 c 33.37378,0 60,26.62624 60,60 v 40 20 h -80 v 80 H 120 v -80 H 40 v -60 c 0,-33.37335 26.627891,-60 60,-60 z m 321.33398,0 h 23.54688 c 8.32568,23.18609 30.56159,40 56.45312,40 25.89154,0 48.1255,-16.81391 56.45118,-40 h 24.88086 c 33.37377,0 60,26.62623 60,60 v 60 h -80 v 80 H 441.33398 v -80 h -80 v -20 -40 c 0,-33.37376 26.62623,-60 60,-60 z M 40,581.33398 h 40 v 40 H 40 Z m 241.33398,0 h 40 v 40 h -40 z m 80,0 h 40 v 40 h -40 z m 241.33204,0 h 40 v 40 h -40 z"
     id="path399" /><sodipodi:namedview
     id="namedview1"
     pagecolor="#ffffff"
     bordercolor="#000000"
     borderopacity="0.25"
     inkscape:showpageshadow="2"
     inkscape:pageopacity="0.0"
     inkscape:pagecheckerboard="0"
     inkscape:deskcolor="#d1d1d1"
     inkscape:zoom="0.36134607"
     inkscape:cx="350.07991"
     inkscape:cy="337.62648"
     inkscape:window-width="1312"
     inkscape:window-height="449"
     inkscape:window-x="0"
     inkscape:window-y="1730"
     inkscape:window-maximized="0"
     inkscape:current-layer="svg333" /><defs
     id="defs337"><clipPath
       clipPathUnits="userSpaceOnUse"
       id="clipPath15"><g
         id="g17"><g
           id="g16"><path
             d="M 0,2.04e-5 H 682.66665 V 682.66667 H 0 Z"
             id="path15"
             style="stroke-width:1.33333" /></g></g></clipPath><clipPath
       clipPathUnits="userSpaceOnUse"
       id="clipPath18"><g
         id="g20"><g
           id="g19"><path
             d="M 0,2.04e-5 H 682.66665 V 682.66667 H 0 Z"
             id="path18"
             style="stroke-width:1.33333" /></g></g></clipPath><clipPath
       clipPathUnits="userSpaceOnUse"
       id="clipPath21"><g
         id="g23"><g
           id="g22"><path
             d="M 0,2.04e-5 H 682.66665 V 682.66667 H 0 Z"
             id="path21"
             style="stroke-width:1.33333" /></g></g></clipPath><clipPath
       clipPathUnits="userSpaceOnUse"
       id="clipPath24"><g
         id="g26"><g
           id="g25"><path
             d="M 0,2.04e-5 H 682.66665 V 682.66667 H 0 Z"
             id="path24"
             style="stroke-width:1.33333" /></g></g></clipPath><clipPath
       clipPathUnits="userSpaceOnUse"
       id="clipPath27"><g
         id="g29"><g
           id="g28"><path
             d="M 0,2.04e-5 H 682.66665 V 682.66667 H 0 Z"
             id="path27"
             style="stroke-width:1.33333" /></g></g></clipPath><clipPath
       clipPathUnits="userSpaceOnUse"
       id="clipPath30"><g
         id="g32"><g
           id="g31"><path
             d="M 0,2.04e-5 H 682.66665 V 682.66667 H 0 Z"
             id="path30"
             style="stroke-width:1.33333" /></g></g></clipPath><clipPath
       clipPathUnits="userSpaceOnUse"
       id="clipPath33"><g
         id="g35"><g
           id="g34"><path
             d="M 0,2.04e-5 H 682.66665 V 682.66667 H 0 Z"
             id="path33"
             style="stroke-width:1.33333" /></g></g></clipPath><clipPath
       clipPathUnits="userSpaceOnUse"
       id="clipPath36"><g
         id="g38"><g
           id="g37"><path
             d="M 0,2.04e-5 H 682.66665 V 682.66667 H 0 Z"
             id="path36"
             style="stroke-width:1.33333" /></g></g></clipPath><clipPath
       clipPathUnits="userSpaceOnUse"
       id="clipPath39"><g
         id="g41"><g
           id="g40"><path
             d="M 0,2.04e-5 H 682.66665 V 682.66667 H 0 Z"
             id="path39"
             style="stroke-width:1.33333" /></g></g></clipPath><clipPath
       clipPathUnits="userSpaceOnUse"
       id="clipPath42"><g
         id="g44"><g
           id="g43"><path
             d="M 0,2.04e-5 H 682.66665 V 682.66667 H 0 Z"
             id="path42"
             style="stroke-width:1.33333" /></g></g></clipPath><clipPath
       clipPathUnits="userSpaceOnUse"
       id="clipPath45"><g
         id="g47"><g
           id="g46"><path
             d="M 0,2.04e-5 H 682.66665 V 682.66667 H 0 Z"
             id="path45"
             style="stroke-width:1.33333" /></g></g></clipPath><clipPath
       clipPathUnits="userSpaceOnUse"
       id="clipPath48"><g
         id="g50"><g
           id="g49"><path
             d="M 0,2.04e-5 H 682.66665 V 682.66667 H 0 Z"
             id="path48"
             style="stroke-width:1.33333" /></g></g></clipPath><clipPath
       clipPathUnits="userSpaceOnUse"
       id="clipPath51"><g
         id="g53"><g
           id="g52"><path
             d="M 0,2.04e-5 H 682.66665 V 682.66667 H 0 Z"
             id="path51"
             style="stroke-width:1.33333" /></g></g></clipPath></defs></svg>
