<?xml version="1.0" encoding="UTF-8" standalone="no"?>
<!-- Created with Inkscape (http://www.inkscape.org/) -->

<svg
   version="1.1"
   id="svg435"
   xml:space="preserve"
   width="682.66602"
   height="640"
   viewBox="0 0 682.66602 640"
   sodipodi:docname="sec-pl-masc-o.svg"
   inkscape:version="1.3.2 (091e20e, 2023-11-25)"
   xmlns:inkscape="http://www.inkscape.org/namespaces/inkscape"
   xmlns:sodipodi="http://sodipodi.sourceforge.net/DTD/sodipodi-0.dtd"
   xmlns="http://www.w3.org/2000/svg"
   xmlns:svg="http://www.w3.org/2000/svg"><sodipodi:namedview
     id="namedview1"
     pagecolor="#ffffff"
     bordercolor="#000000"
     borderopacity="0.25"
     inkscape:showpageshadow="2"
     inkscape:pageopacity="0.0"
     inkscape:pagecheckerboard="0"
     inkscape:deskcolor="#d1d1d1"
     inkscape:zoom="0.41114581"
     inkscape:cx="305.24451"
     inkscape:cy="323.48621"
     inkscape:window-width="1728"
     inkscape:window-height="1051"
     inkscape:window-x="0"
     inkscape:window-y="1730"
     inkscape:window-maximized="0"
     inkscape:current-layer="svg435" /><defs
     id="defs439"><clipPath
       clipPathUnits="userSpaceOnUse"
       id="clipPath13"><g
         id="g15"><g
           id="g14"><path
             d="M 0,2.04e-5 H 682.66665 V 682.66667 H 0 Z"
             id="path13"
             style="stroke-width:1.33333" /></g></g></clipPath><clipPath
       clipPathUnits="userSpaceOnUse"
       id="clipPath16"><g
         id="g18"><g
           id="g17"><path
             d="M 0,2.04e-5 H 682.66665 V 682.66667 H 0 Z"
             id="path16"
             style="stroke-width:1.33333" /></g></g></clipPath><clipPath
       clipPathUnits="userSpaceOnUse"
       id="clipPath19"><g
         id="g21"><g
           id="g20"><path
             d="M 0,2.04e-5 H 682.66665 V 682.66667 H 0 Z"
             id="path19"
             style="stroke-width:1.33333" /></g></g></clipPath><clipPath
       clipPathUnits="userSpaceOnUse"
       id="clipPath22"><g
         id="g24"><g
           id="g23"><path
             d="M 0,2.04e-5 H 682.66665 V 682.66667 H 0 Z"
             id="path22"
             style="stroke-width:1.33333" /></g></g></clipPath><clipPath
       clipPathUnits="userSpaceOnUse"
       id="clipPath25"><g
         id="g27"><g
           id="g26"><path
             d="M 0,2.04e-5 H 682.66665 V 682.66667 H 0 Z"
             id="path25"
             style="stroke-width:1.33333" /></g></g></clipPath><clipPath
       clipPathUnits="userSpaceOnUse"
       id="clipPath28"><g
         id="g30"><g
           id="g29"><path
             d="M 0,2.04e-5 H 682.66665 V 682.66667 H 0 Z"
             id="path28"
             style="stroke-width:1.33333" /></g></g></clipPath><clipPath
       clipPathUnits="userSpaceOnUse"
       id="clipPath31"><g
         id="g33"><g
           id="g32"><path
             d="M 0,2.04e-5 H 682.66665 V 682.66667 H 0 Z"
             id="path31"
             style="stroke-width:1.33333" /></g></g></clipPath><clipPath
       clipPathUnits="userSpaceOnUse"
       id="clipPath34"><g
         id="g36"><g
           id="g35"><path
             d="M 0,2.04e-5 H 682.66665 V 682.66667 H 0 Z"
             id="path34"
             style="stroke-width:1.33333" /></g></g></clipPath><clipPath
       clipPathUnits="userSpaceOnUse"
       id="clipPath37"><g
         id="g39"><g
           id="g38"><path
             d="M 0,2.04e-5 H 682.66665 V 682.66667 H 0 Z"
             id="path37"
             style="stroke-width:1.33333" /></g></g></clipPath><clipPath
       clipPathUnits="userSpaceOnUse"
       id="clipPath40"><g
         id="g42"><g
           id="g41"><path
             d="M 0,2.04e-5 H 682.66665 V 682.66667 H 0 Z"
             id="path40"
             style="stroke-width:1.33333" /></g></g></clipPath><clipPath
       clipPathUnits="userSpaceOnUse"
       id="clipPath43"><g
         id="g45"><g
           id="g44"><path
             d="M 0,2.04e-5 H 682.66665 V 682.66667 H 0 Z"
             id="path43"
             style="stroke-width:1.33333" /></g></g></clipPath></defs><path
     d="M 100,0 C 45.00858,0 0,45.008585 0,99.999996 0,132.49922 15.789841,161.42261 40,179.71875 V 260 c 0,40.04594 17.086425,75.97862 44.21875,101.37891 C 36.671895,369.02089 0,410.38773 0,460 v 180 h 338.97266 4.7207 338.97266 V 460 c 0,-49.88516 -37.07644,-91.43371 -85.00586,-98.74218 C 625.05343,335.94422 642.66602,300.15635 642.66602,260 v -80.28125 c 24.21016,-18.29614 40,-47.21953 40,-79.718754 C 682.66602,45.008586 637.65743,0 582.66602,0 h -61.33204 v 20 c 0,11.283038 -8.71813,20 -20,20 h -40 c -54.9914,0 -100,45.008576 -100,100 v 40 20 60 c 0,40.04631 17.08639,75.97856 44.21875,101.37891 -26.15211,4.20329 -48.94972,18.59675 -64.21875,38.99805 C 326.06496,379.97566 303.26735,365.5822 277.11523,361.37891 304.2478,335.9789 321.33398,300.04602 321.33398,260 v -60 -20 -40 c 0,-54.991424 -45.00858,-100 -100,-100 h -40 C 170.05213,40 160,30.478326 160,20 V 0 Z m 0,40 h 23.58594 c 8.58539,23.535918 31.74,39.999996 57.74804,39.999996 h 40 c 33.37374,0 60,26.626274 60,60.000004 v 20 H 100 C 66.626264,160 40,133.37375 40,99.999996 40,66.626271 66.626264,40 100,40 Z m 457.78516,0 h 24.88086 c 33.37373,0 60,26.62627 60,59.999996 0,33.373754 -26.62627,60.000004 -60,60.000004 H 401.33398 v -20 c 0,-33.37373 26.62628,-60.000004 60,-60.000004 h 40 c 25.89098,0 48.12534,-16.813759 56.45118,-39.999996 z M 80,197.97266 C 86.467285,199.29946 93.15593,200 100,200 h 181.33398 v 60 c 0,43.61084 -27.88286,80.00595 -66.69921,93.80469 l -13.30079,4.72852 V 380 c 0,11.28385 -8.71615,20 -20,20 C 170.05015,400 160,390.47913 160,380 v -21.46679 l -13.30078,-4.72852 C 107.88286,340.00595 80,303.61084 80,260 Z m 522.66602,0 V 260 c 0,43.27008 -29.10121,79.96553 -68.03125,93.80469 l -13.30079,4.72852 V 380 c 0,11.28385 -8.71615,20 -20,20 -11.28383,0 -20,-8.71615 -20,-20 V 358.53321 L 468.0332,353.80469 C 429.21685,340.00595 401.33398,303.61084 401.33398,260 v -60 h 181.33204 c 6.84406,0 13.53271,-0.70054 20,-2.02734 z M 100,400 h 23.59375 c 8.58314,23.53608 31.73182,40 57.74023,40 25.89283,0 48.13492,-16.81193 56.45899,-40 h 23.54101 c 33.37375,0 60,26.62628 60,60 v 40 20 h -80 v 80 H 120 V 520 H 40 v -60 c 0,-33.37331 26.627924,-60 60,-60 z m 321.33398,0 H 444.875 c 8.32394,23.18837 30.56594,40 56.45898,40 25.89285,0 48.13498,-16.81195 56.45899,-40 h 24.87305 c 33.37373,0 60,26.62627 60,60 v 60 h -80 v 80 H 441.33398 v -80 h -80 v -20 -40 c 0,-33.37372 26.62627,-60 60,-60 z M 40,560 h 40 v 40 H 40 Z m 241.33398,0 h 40 v 40 h -40 z m 80,0 h 40 v 40 h -40 z m 241.33204,0 h 40 v 40 h -40 z"
     style="stroke-miterlimit:10"
     id="path46" /></svg>
