<?xml version="1.0" encoding="UTF-8" standalone="no"?>
<svg
   version="1.1"
   id="Capa_1"
   x="0px"
   y="0px"
   viewBox="0 0 463.67006 511.86"
   xml:space="preserve"
   width="463.79688"
   height="512"
   sodipodi:docname="sec-sing-masc-o.svg"
   inkscape:version="1.3.2 (091e20e, 2023-11-25)"
   xmlns:inkscape="http://www.inkscape.org/namespaces/inkscape"
   xmlns:sodipodi="http://sodipodi.sourceforge.net/DTD/sodipodi-0.dtd"
   xmlns="http://www.w3.org/2000/svg"
   xmlns:svg="http://www.w3.org/2000/svg"><defs
   id="defs5" /><sodipodi:namedview
   id="namedview5"
   pagecolor="#ffffff"
   bordercolor="#000000"
   borderopacity="0.25"
   inkscape:showpageshadow="2"
   inkscape:pageopacity="0.0"
   inkscape:pagecheckerboard="0"
   inkscape:deskcolor="#d1d1d1"
   inkscape:zoom="1.3892632"
   inkscape:cx="223.49976"
   inkscape:cy="285.76298"
   inkscape:window-width="1728"
   inkscape:window-height="1051"
   inkscape:window-x="0"
   inkscape:window-y="1730"
   inkscape:window-maximized="0"
   inkscape:current-layer="Capa_1" />
<path
   id="path1"
   d="m 109.50521,0 -7.03714,15.601202 C 83.598168,57.432911 81.489278,105.76488 96.758688,149.16819 c -8.58423,9.59982 -13.85168,22.21625 -13.85168,36.00187 0,23.61789 15.45657,43.6814 36.714572,51.01925 v 2.40754 c 0,41.44039 20.44541,78.32969 51.48397,99.54504 l -5.28762,27.04143 -81.177022,23.18116 c -29.493057,8.42234 -53.0207,30.79364 -62.922239,59.82348 L 0,511.86 h 463.67006 l -21.65619,-63.60174 c -9.89782,-29.07108 -33.45803,-51.47159 -62.99253,-59.88792 l -81.15164,-23.12649 -5.29738,-27.10587 c 31.03532,-21.21595 51.48006,-58.10322 51.48006,-99.54113 v -2.40559 c 21.26255,-7.33519 36.72433,-27.40036 36.72433,-51.0212 0,-15.18463 -6.39004,-28.94641 -16.57359,-38.81751 v -44.34334 c 0,-61.603575 -58.02534,-107.6757943 -118.02436,-93.7106985 L 193.74389,20.504157 c -23.84124,5.549157 -48.89407,1.42075 -69.69579,-11.4831868 z m 158.9819,35.728509 c 35.57697,0.04338 65.71641,28.674752 65.71641,66.280701 v 29.57004 c -1.39709,-0.19813 -2.79887,-0.38052 -4.22736,-0.46863 l -0.46277,-0.0293 h -0.46471 c -9.95147,7.1e-4 -19.45089,-4.06534 -26.32093,-11.26841 l -34.76783,-36.452917 -10.85446,11.3797 c -22.14208,23.214247 -52.8046,36.341627 -84.88498,36.341627 h -38.06381 l -0.46277,0.0293 c -3.67306,0.22751 -7.24187,0.84292 -10.68457,1.77491 -8.78826,-29.30514 -8.33511,-61.210393 1.12469,-90.213608 23.94244,10.376919 50.69437,13.035953 76.40879,7.050806 l 52.43683,-12.205646 c 5.23234,-1.217857 10.42505,-1.79477 15.50747,-1.788573 z m -1.12859,90.467441 13.66032,14.32421 c 12.52192,13.1289 29.88933,20.56402 48.03179,20.56273 l -0.92358,-0.0273 c 12.72452,0.78484 22.6481,11.10325 22.6481,24.1145 0,13.01125 -9.92358,23.32965 -22.6481,24.11449 l -14.07623,0.86891 v 28.44339 c 0,49.53511 -37.15309,88.48166 -82.21384,88.48166 -45.0619,0 -82.21579,-38.94638 -82.21579,-88.48166 v -28.44144 l -14.07428,-0.87086 c -12.72086,-0.78791 -22.64029,-11.10496 -22.64029,-24.11449 0,-12.94429 9.82585,-23.20827 22.4548,-24.08717 h 36.85906 c 35.00252,0 68.67215,-12.49055 95.13804,-34.88694 z m -2.66724,225.69218 4.2996,22.00765 c -19.01244,25.13016 -55.31328,25.11043 -74.29803,-0.0547 l 4.29374,-21.95103 c 10.37761,3.36098 21.40185,5.18804 32.85039,5.18804 11.45055,0 22.47504,-1.8278 32.8543,-5.18999 z m -91.94556,42.51376 c 30.31166,36.42975 87.84374,36.45282 118.18643,0.0586 l 79.86682,22.7594 v 0.002 c 20.0994,5.72765 36.08028,20.91888 42.81642,40.70371 l 8.14816,23.93291 H 367.34094 V 449.0432 h -29.99961 v 32.81524 H 126.34045 V 449.0432 H 96.340838 v 32.81524 h -54.4109 l 8.181356,-23.98758 c 6.738428,-19.75606 22.696758,-34.92717 42.767604,-40.6588 z" />




















</svg>
