<?xml version="1.0" encoding="UTF-8" standalone="no"?>
<!-- Created with Inkscape (http://www.inkscape.org/) -->

<svg
   version="1.1"
   id="svg2547"
   xml:space="preserve"
   width="682.66669"
   height="682.66669"
   viewBox="0 0 682.66669 682.66669"
   sodipodi:docname="third-pl-masc-o.svg"
   inkscape:version="1.3.2 (091e20e, 2023-11-25)"
   xmlns:inkscape="http://www.inkscape.org/namespaces/inkscape"
   xmlns:sodipodi="http://sodipodi.sourceforge.net/DTD/sodipodi-0.dtd"
   xmlns="http://www.w3.org/2000/svg"
   xmlns:svg="http://www.w3.org/2000/svg"><sodipodi:namedview
     id="namedview1"
     pagecolor="#ffffff"
     bordercolor="#000000"
     borderopacity="0.25"
     inkscape:showpageshadow="2"
     inkscape:pageopacity="0.0"
     inkscape:pagecheckerboard="0"
     inkscape:deskcolor="#d1d1d1"
     inkscape:zoom="1.0619302"
     inkscape:cx="347.00963"
     inkscape:cy="367.25578"
     inkscape:window-width="1728"
     inkscape:window-height="1051"
     inkscape:window-x="0"
     inkscape:window-y="1730"
     inkscape:window-maximized="0"
     inkscape:current-layer="svg2547" /><defs
     id="defs1"><clipPath
       clipPathUnits="userSpaceOnUse"
       id="clipPath3"><g
         id="g4"><path
           d="M 0,2.04e-5 H 682.66665 V 682.66667 H 0 Z"
           id="path3"
           style="stroke-width:1.33333" /></g></clipPath><clipPath
       clipPathUnits="userSpaceOnUse"
       id="clipPath4"><g
         id="g5"><path
           d="M 0,2.04e-5 H 682.66665 V 682.66667 H 0 Z"
           id="path4"
           style="stroke-width:1.33333" /></g></clipPath><clipPath
       clipPathUnits="userSpaceOnUse"
       id="clipPath21"><g
         id="g23"><g
           id="g22"><path
             d="M 0,2.04e-5 H 682.66665 V 682.66667 H 0 Z"
             id="path21"
             style="stroke-width:1.33333" /></g></g></clipPath><clipPath
       clipPathUnits="userSpaceOnUse"
       id="clipPath24"><g
         id="g26"><g
           id="g25"><path
             d="M 0,2.04e-5 H 682.66665 V 682.66667 H 0 Z"
             id="path24"
             style="stroke-width:1.33333" /></g></g></clipPath><clipPath
       clipPathUnits="userSpaceOnUse"
       id="clipPath27"><g
         id="g29"><g
           id="g28"><path
             d="M 0,2.04e-5 H 682.66665 V 682.66667 H 0 Z"
             id="path27"
             style="stroke-width:1.33333" /></g></g></clipPath><clipPath
       clipPathUnits="userSpaceOnUse"
       id="clipPath30"><g
         id="g32"><g
           id="g31"><path
             d="M 0,2.04e-5 H 682.66665 V 682.66667 H 0 Z"
             id="path30"
             style="stroke-width:1.33333" /></g></g></clipPath><clipPath
       clipPathUnits="userSpaceOnUse"
       id="clipPath33"><g
         id="g35"><g
           id="g34"><path
             d="M 0,2.04e-5 H 682.66665 V 682.66667 H 0 Z"
             id="path33"
             style="stroke-width:1.33333" /></g></g></clipPath><clipPath
       clipPathUnits="userSpaceOnUse"
       id="clipPath36"><g
         id="g38"><g
           id="g37"><path
             d="M 0,2.04e-5 H 682.66665 V 682.66667 H 0 Z"
             id="path36"
             style="stroke-width:1.33333" /></g></g></clipPath><clipPath
       clipPathUnits="userSpaceOnUse"
       id="clipPath39"><g
         id="g41"><g
           id="g40"><path
             d="M 0,2.04e-5 H 682.66665 V 682.66667 H 0 Z"
             id="path39"
             style="stroke-width:1.33333" /></g></g></clipPath><clipPath
       clipPathUnits="userSpaceOnUse"
       id="clipPath42"><g
         id="g44"><g
           id="g43"><path
             d="M 0,2.04e-5 H 682.66665 V 682.66667 H 0 Z"
             id="path42"
             style="stroke-width:1.33333" /></g></g></clipPath><clipPath
       clipPathUnits="userSpaceOnUse"
       id="clipPath45"><g
         id="g47"><g
           id="g46"><path
             d="M 0,2.04e-5 H 682.66665 V 682.66667 H 0 Z"
             id="path45"
             style="stroke-width:1.33333" /></g></g></clipPath><clipPath
       clipPathUnits="userSpaceOnUse"
       id="clipPath48"><g
         id="g50"><g
           id="g49"><path
             d="M 0,2.04e-5 H 682.66665 V 682.66667 H 0 Z"
             id="path48"
             style="stroke-width:1.33333" /></g></g></clipPath><clipPath
       clipPathUnits="userSpaceOnUse"
       id="clipPath51"><g
         id="g53"><g
           id="g52"><path
             d="M 0,2.04e-5 H 682.66665 V 682.66667 H 0 Z"
             id="path51"
             style="stroke-width:1.33333" /></g></g></clipPath><clipPath
       clipPathUnits="userSpaceOnUse"
       id="clipPath54"><g
         id="g56"><g
           id="g55"><path
             d="M 0,2.04e-5 H 682.66665 V 682.66667 H 0 Z"
             id="path54"
             style="stroke-width:1.33333" /></g></g></clipPath><clipPath
       clipPathUnits="userSpaceOnUse"
       id="clipPath57"><g
         id="g59"><g
           id="g58"><path
             d="M 0,2.04e-5 H 682.66665 V 682.66667 H 0 Z"
             id="path57"
             style="stroke-width:1.33333" /></g></g></clipPath><clipPath
       clipPathUnits="userSpaceOnUse"
       id="clipPath60"><g
         id="g62"><g
           id="g61"><path
             d="M 0,2.04e-5 H 682.66665 V 682.66667 H 0 Z"
             id="path60"
             style="stroke-width:1.33333" /></g></g></clipPath><clipPath
       clipPathUnits="userSpaceOnUse"
       id="clipPath63"><g
         id="g65"><g
           id="g64"><path
             d="M 0,2.04e-5 H 682.66665 V 682.66667 H 0 Z"
             id="path63"
             style="stroke-width:1.33333" /></g></g></clipPath><clipPath
       clipPathUnits="userSpaceOnUse"
       id="clipPath66"><g
         id="g68"><g
           id="g67"><path
             d="M 0,2.04e-5 H 682.66665 V 682.66667 H 0 Z"
             id="path66"
             style="stroke-width:1.33333" /></g></g></clipPath><clipPath
       clipPathUnits="userSpaceOnUse"
       id="clipPath69"><g
         id="g71"><g
           id="g70"><path
             d="M 0,2.04e-5 H 682.66665 V 682.66667 H 0 Z"
             id="path69"
             style="stroke-width:1.33333" /></g></g></clipPath></defs><path
     d="M 180,0 C 102.91702,0 40,62.917021 40,140 40,183.78608 60.315417,222.98461 91.982422,248.69336 38.451369,268.3891 0,319.7973 0,380 v 102.66602 h 20 60 v 40 160 h 200 v -160 -40 h 121.33398 v 40 160 h 200 v -160 -40 h 61.33204 20 V 380 c 0,-60.57997 -38.93159,-112.26137 -92.98829,-131.67773 31.48802,-25.81183 51.65625,-65.04529 51.65625,-108.82032 V 0 h -280 v 20 119.50195 c 0,43.77503 20.16825,83.00849 51.65625,108.82032 -31.3535,11.26124 -57.55635,33.34999 -74.06835,61.80273 0.38241,-0.65674 0.72251,-1.34025 1.11523,-1.99023 -16.37474,-27.2082 -41.75383,-48.39702 -71.92578,-59.51563 C 299.7252,222.90915 320,183.7433 320,140 320,62.917022 257.08298,0 180,0 Z M 399.16602,36.923828 H 601.33398 V 78.666016 H 398.66211 c 0.22489,-11.15962 0.50391,-23.671862 0.50391,-41.742188 z M 160,41.982422 V 60 v 0 1.333984 c 0,33.373673 -26.62633,59.999996 -60,59.999996 H 81.746094 C 89.214941,81.367275 120.22537,49.972146 160,41.982422 Z m 40,0 C 239.33349,49.883532 270.11647,80.666507 278.01758,120 H 260 c -33.37367,0 -60,-26.626337 -60,-60 z m 199.25195,76.683598 h 202.08203 v 20.83593 c 0,55.78356 -44.57924,100.49805 -100,100.49805 -55.42075,0 -100,-44.71449 -100,-100.49805 -1.00613,-7.93791 -1.6297,-14.58826 -2.08203,-20.83593 z m -218.69336,1.70507 C 198.86998,144.37188 227.66624,160 260,160 h 18.01758 C 268.81916,205.79176 228.61007,240 180,240 131.86537,240 91.984409,206.45132 82.277344,161.33398 H 100 c 32.95481,0 62.31209,-16.17333 80.55859,-40.96289 z m 380.39844,153.83794 c -0.57037,2.42191 -1.24813,4.79955 -2.09375,7.09961 -8.60313,23.4004 -30.95246,40.02539 -57.5293,40.02539 -26.57618,0 -48.92683,-16.62518 -57.53125,-40.02539 C 449.0738,280.45931 454.47919,280 460,280 h 82.66602 c 5.5208,0 10.9262,0.45931 16.19726,1.30859 0.84527,-2.29911 1.51727,-4.68159 2.09375,-7.09961 z m -119.24414,0.0156 c 0.57417,2.40613 1.24334,4.77603 2.08399,7.06445 -0.84098,-2.28944 -1.51562,-4.65434 -2.08399,-7.06445 z m -319.57812,7.37891 C 127.93124,280.56884 133.89369,280 140,280 h 80 c 6.1063,0 12.06876,0.56884 17.86523,1.60352 v 0 c -8.32155,23.93437 -30.90306,41.0625 -57.86523,41.0625 -26.96216,0 -49.54367,-17.12798 -57.86523,-41.0625 z m 284.30859,13.84008 c 14.43396,38.43883 51.60142,65.89062 94.89062,65.89062 43.28979,0 80.45609,-27.45074 94.88868,-65.89062 27.96071,17.67836 46.44336,48.83983 46.44336,84.55664 v 62.66602 h -41.33204 v -20 h -40 v 100 h -120 v -100 h -40 v 20 H 360 V 380 c 0,-35.71681 18.48265,-66.87828 46.44336,-84.55664 z m -321.455079,0.92969 c 14.326285,38.6477 51.574639,66.29297 95.011719,66.29297 43.43708,0 80.68542,-27.64513 95.01172,-66.29297 C 302.15844,314.20298 320,344.90478 320,380 c 0,-4.26998 0.26322,-8.47562 0.64258,-12.64844 C 320.26497,371.52503 320,375.73137 320,380 v 62.66602 h -40 v -20 h -40 v 100 H 120 v -100 H 80 v 20 H 40 V 380 c 0,-35.09522 17.841554,-65.79702 44.988281,-83.62695 z M 481.33398,401.33398 v 40 h 40 v -40 z M 120,562.66602 h 40 v 80 h -40 z m 80,0 h 40 v 80 h -40 z m 241.33398,0 h 40 v 80 h -40 z m 80,0 h 40 v 80 h -40 z"
     id="path72"
     style="fill:#231f20;stroke-miterlimit:10"
     sodipodi:nodetypes="sscsccccccccccccccccscscccsccccssccccccscssccccsscccsscccscscsccsscsscccccccscsssccscsccccccccccsccscccsccccccccccsccccccccccccccccccccccccccccc" /></svg>
