<?xml version="1.0" encoding="UTF-8" standalone="no"?>
<svg
   height="512.02454pt"
   viewBox="-90 0 272.45563 512.02454"
   width="272.45563pt"
   version="1.1"
   id="svg2"
   sodipodi:docname="third-sing-masc-o.svg"
   inkscape:version="1.3.2 (091e20e, 2023-11-25)"
   xmlns:inkscape="http://www.inkscape.org/namespaces/inkscape"
   xmlns:sodipodi="http://sodipodi.sourceforge.net/DTD/sodipodi-0.dtd"
   xmlns="http://www.w3.org/2000/svg"
   xmlns:svg="http://www.w3.org/2000/svg">
  <defs
     id="defs2" />
  <sodipodi:namedview
     id="namedview2"
     pagecolor="#ffffff"
     bordercolor="#000000"
     borderopacity="0.25"
     inkscape:showpageshadow="2"
     inkscape:pageopacity="0.0"
     inkscape:pagecheckerboard="0"
     inkscape:deskcolor="#d1d1d1"
     inkscape:document-units="pt"
     inkscape:zoom="0.47654995"
     inkscape:cx="-99.674756"
     inkscape:cy="315.8116"
     inkscape:window-width="1312"
     inkscape:window-height="834"
     inkscape:window-x="0"
     inkscape:window-y="1730"
     inkscape:window-maximized="0"
     inkscape:current-layer="svg2" />
  <path
     id="path13"
     style="fill:#231f20"
     d="m 31.327228,317.02457 v 60 h 30 v -60 z m 15,-316.99951485 C -18.840162,-1.3089229 -79.416223,50.795761 -88.102948,115.34195 c -8.677054,52.09289 16.626798,107.54319 61.441406,135.39405 -40.74017,16.89408 -66.572021,61.12423 -63.011718,104.82568 -0.398854,11.85048 -0.279571,24.21964 -0.285645,36.46289 h 61.286133 c -0.32133,40.12196 0.15472,79.79073 0.063,120 H 121.32723 v -120 h 61.00049 c -0.87271,-32.71185 4.59769,-67.79233 -13.66113,-97.1206 -7.07543,-21.2035 -40.58981,-36.24618 -45.83936,-46.48682 C 175.57288,213.93421 197.1869,140.70628 171.62411,83.138825 151.14489,33.610239 100.03032,-0.58405613 46.327228,0.02505515 Z M 30.085038,31.267243 c -6.27106,44.564722 -43.95182,82.244347 -88.516111,88.516117 6.402126,-44.714913 43.785971,-82.110466 88.516111,-88.516117 z m 32.50049,0.0044 C 106.83218,37.513554 144.3187,74.704898 150.93612,118.89275 106.40845,112.83556 69.019378,75.760324 62.585528,31.271637 Z M 46.390218,76.958655 C 66.564308,116.50378 107.28829,144.70185 151.50741,149.21208 146.04798,201.64571 96.519578,244.41987 43.817948,241.99528 -6.8258925,241.8171 -52.979386,200.36175 -58.73869,150.07926 -14.324402,145.17761 26.221498,116.77734 46.390218,76.958649 Z m 20.6001,194.620615 c 1.70114,-0.12876 3.6997,0.0394 5.93554,0.44531 42.113202,-3.42262 81.845142,34.10542 79.401862,76.5791 -0.007,7.17308 2.4095,16.76852 -8.11817,13.4209 h -22.88232 c -0.87386,-6.44573 3.58354,-18.22343 -6.95947,-15 H 91.327228 v 60 H 1.3272275 v -60 H -28.672772 c -0.87386,6.44573 3.58354,18.22344 -6.95947,15 H -59.67326 c -1.464314,-24.50177 3.015538,-50.85879 21.991698,-68.2251 13.90094,-13.87491 33.3650795,-21.87537 53.0083,-21.7749 5.8416,1.42488 18.68181,-4.14848 16.00049,5.79932 -3.07785,10.39744 4.71885,9.91957 12.75732,9.20068 5.56983,-1.72395 18.81462,4.22657 17.24268,-4.63916 -1.86825,-7.35793 0.55967,-10.41988 5.66309,-10.80615 z M 1.3272275,437.02457 H 31.327228 v 45 H 1.3272275 Z m 60.0000005,0 h 30 v 45 h -30 z" />
</svg>
