<?xml version="1.0" encoding="UTF-8" standalone="no"?>
<!-- Created with Inkscape (http://www.inkscape.org/) -->

<svg
   version="1.1"
   id="svg2679"
   xml:space="preserve"
   width="682.66669"
   height="682.66669"
   viewBox="0 0 682.66669 682.66669"
   sodipodi:docname="third-pl-fem-o.svg"
   inkscape:version="1.3.2 (091e20e, 2023-11-25)"
   xmlns:inkscape="http://www.inkscape.org/namespaces/inkscape"
   xmlns:sodipodi="http://sodipodi.sourceforge.net/DTD/sodipodi-0.dtd"
   xmlns="http://www.w3.org/2000/svg"
   xmlns:svg="http://www.w3.org/2000/svg"><sodipodi:namedview
     inkscape:zoom="0.82265974"
     inkscape:cx="334.88937"
     inkscape:cy="337.92829"
     inkscape:window-width="1728"
     inkscape:window-height="1051"
     inkscape:window-x="0"
     inkscape:window-y="1730"
     inkscape:window-maximized="0"
     inkscape:current-layer="svg2679"
     id="namedview1"
     pagecolor="#ffffff"
     bordercolor="#000000"
     borderopacity="0.25"
     inkscape:showpageshadow="2"
     inkscape:pageopacity="0.0"
     inkscape:pagecheckerboard="0"
     inkscape:deskcolor="#d1d1d1" /><defs
     id="defs1"><clipPath
       clipPathUnits="userSpaceOnUse"
       id="clipPath5"><g
         id="g6"><path
           d="M 0,2.04e-5 H 682.66665 V 682.66667 H 0 Z"
           id="path5"
           style="stroke-width:1.33333" /></g></clipPath><clipPath
       clipPathUnits="userSpaceOnUse"
       id="clipPath8"><g
         id="g9"><path
           d="M 0,2.04e-5 H 682.66665 V 682.66667 H 0 Z"
           id="path8"
           style="stroke-width:1.33333" /></g></clipPath><clipPath
       clipPathUnits="userSpaceOnUse"
       id="clipPath20"><g
         id="g22"><g
           id="g21"><path
             d="M 0,2.04e-5 H 682.66665 V 682.66667 H 0 Z"
             id="path20"
             style="stroke-width:1.33333" /></g></g></clipPath><clipPath
       clipPathUnits="userSpaceOnUse"
       id="clipPath23"><g
         id="g25"><g
           id="g24"><path
             d="M 0,2.04e-5 H 682.66665 V 682.66667 H 0 Z"
             id="path23"
             style="stroke-width:1.33333" /></g></g></clipPath><clipPath
       clipPathUnits="userSpaceOnUse"
       id="clipPath26"><g
         id="g28"><g
           id="g27"><path
             d="M 0,2.04e-5 H 682.66665 V 682.66667 H 0 Z"
             id="path26"
             style="stroke-width:1.33333" /></g></g></clipPath><clipPath
       clipPathUnits="userSpaceOnUse"
       id="clipPath29"><g
         id="g31"><g
           id="g30"><path
             d="M 0,2.04e-5 H 682.66665 V 682.66667 H 0 Z"
             id="path29"
             style="stroke-width:1.33333" /></g></g></clipPath><clipPath
       clipPathUnits="userSpaceOnUse"
       id="clipPath32"><g
         id="g34"><g
           id="g33"><path
             d="M 0,2.04e-5 H 682.66665 V 682.66667 H 0 Z"
             id="path32"
             style="stroke-width:1.33333" /></g></g></clipPath><clipPath
       clipPathUnits="userSpaceOnUse"
       id="clipPath35"><g
         id="g37"><g
           id="g36"><path
             d="M 0,2.04e-5 H 682.66665 V 682.66667 H 0 Z"
             id="path35"
             style="stroke-width:1.33333" /></g></g></clipPath><clipPath
       clipPathUnits="userSpaceOnUse"
       id="clipPath38"><g
         id="g40"><g
           id="g39"><path
             d="M 0,2.04e-5 H 682.66665 V 682.66667 H 0 Z"
             id="path38"
             style="stroke-width:1.33333" /></g></g></clipPath><clipPath
       clipPathUnits="userSpaceOnUse"
       id="clipPath41"><g
         id="g43"><g
           id="g42"><path
             d="M 0,2.04e-5 H 682.66665 V 682.66667 H 0 Z"
             id="path41"
             style="stroke-width:1.33333" /></g></g></clipPath><clipPath
       clipPathUnits="userSpaceOnUse"
       id="clipPath44"><g
         id="g46"><g
           id="g45"><path
             d="M 0,2.04e-5 H 682.66665 V 682.66667 H 0 Z"
             id="path44"
             style="stroke-width:1.33333" /></g></g></clipPath><clipPath
       clipPathUnits="userSpaceOnUse"
       id="clipPath47"><g
         id="g49"><g
           id="g48"><path
             d="M 0,2.04e-5 H 682.66665 V 682.66667 H 0 Z"
             id="path47"
             style="stroke-width:1.33333" /></g></g></clipPath><clipPath
       clipPathUnits="userSpaceOnUse"
       id="clipPath50"><g
         id="g52"><g
           id="g51"><path
             d="M 0,2.04e-5 H 682.66665 V 682.66667 H 0 Z"
             id="path50"
             style="stroke-width:1.33333" /></g></g></clipPath><clipPath
       clipPathUnits="userSpaceOnUse"
       id="clipPath53"><g
         id="g55"><g
           id="g54"><path
             d="M 0,2.04e-5 H 682.66665 V 682.66667 H 0 Z"
             id="path53"
             style="stroke-width:1.33333" /></g></g></clipPath><clipPath
       clipPathUnits="userSpaceOnUse"
       id="clipPath56"><g
         id="g58"><g
           id="g57"><path
             d="M 0,2.04e-5 H 682.66665 V 682.66667 H 0 Z"
             id="path56"
             style="stroke-width:1.33333" /></g></g></clipPath><clipPath
       clipPathUnits="userSpaceOnUse"
       id="clipPath59"><g
         id="g61"><g
           id="g60"><path
             d="M 0,2.04e-5 H 682.66665 V 682.66667 H 0 Z"
             id="path59"
             style="stroke-width:1.33333" /></g></g></clipPath><clipPath
       clipPathUnits="userSpaceOnUse"
       id="clipPath62"><g
         id="g64"><g
           id="g63"><path
             d="M 0,2.04e-5 H 682.66665 V 682.66667 H 0 Z"
             id="path62"
             style="stroke-width:1.33333" /></g></g></clipPath><clipPath
       clipPathUnits="userSpaceOnUse"
       id="clipPath65"><g
         id="g67"><g
           id="g66"><path
             d="M 0,2.04e-5 H 682.66665 V 682.66667 H 0 Z"
             id="path65"
             style="stroke-width:1.33333" /></g></g></clipPath></defs><path
     id="path2697"
     style="color:#000000;fill:#231f20;stroke-miterlimit:10;-inkscape-stroke:none"
     d="m 501.33203,0 c -43.94586,0 -80,36.054133 -80,80 0,8.360351 1.31131,16.465871 3.71875,24.09375 -38.29593,25.03392 -63.7168,68.26252 -63.7168,117.24023 0,48.85016 25.28691,91.98356 63.41602,117.04688 -36.30934,17.01298 -66.08602,45.71335 -84.49023,81.2207 C 322.09545,384.16688 292.55056,355.48823 256.46289,338.45898 294.65921,313.40744 320,270.23555 320,221.33398 c 0,-12.11094 -1.55745,-23.87127 -4.47461,-35.09375 27.7778,-12.59483 47.14258,-40.62441 47.14258,-72.9082 0,-43.944969 -36.05361,-79.999999 -80,-79.999999 -33.69901,0 -62.75486,21.140664 -74.46875,50.867188 C 199.08528,82.321187 189.65413,81.333984 180,81.333984 c -8.77929,0 -17.36143,0.853801 -25.70117,2.414063 C 142.47354,54.248597 113.53149,33.333984 80,33.333984 c -43.945866,0 -80,36.054139 -80,79.999996 0,31.37039 18.259555,58.72748 44.789062,71.80469 C 41.682659,196.69488 40,208.82297 40,221.33398 c 0,48.90157 25.340789,92.07346 63.53711,117.125 C 42.443557,367.28814 0,429.48082 0,501.33398 v 101.33204 h 80 v 80 h 200 v -80 h 80 41.33398 v 80 h 200 v -80 h 81.33204 v -100 c 0,-72.56068 -42.96515,-135.33575 -104.75,-164.28516 38.12987,-25.06318 63.41796,-68.19613 63.41796,-117.04688 0,-48.97926 -25.42274,-92.20863 -63.7207,-117.24218 2.40637,-7.627009 3.71875,-15.732002 3.71875,-24.0918 0,-43.945867 -36.05413,-80 -80,-80 z m 0,40 c 22.32867,0 40,17.671335 40,40 0,2.414685 -0.23137,4.754066 -0.63086,7.027344 -12.50127,-3.681847 -25.7043,-5.69336 -39.36719,-5.69336 -13.66437,0 -26.8686,2.012688 -39.37109,5.695313 -0.4,-2.273932 -0.63086,-4.61367 -0.63086,-7.029297 0,-22.328665 17.67134,-40 40,-40 z M 282.66797,73.332031 c 22.32813,0 40,17.6731 40,39.999999 0,16.05966 -9.25896,29.65605 -22.67578,36.06055 C 286.92406,127.7095 268.1511,109.83003 245.7793,97.84375 251.774,83.412497 265.87716,73.332031 282.66797,73.332031 Z M 80,73.333984 c 16.350521,0 30.15059,9.570027 36.40039,23.390625 C 93.433507,108.5171 74.100943,126.44678 60.636719,148.35742 48.340225,141.58772 40,128.56285 40,113.33398 40,91.005325 57.671333,73.333984 80,73.333984 Z m 80,49.982426 v 18.01757 c 0,33.37374 -26.62626,60 -60,60 H 81.982422 C 89.882957,161.99957 120.66585,131.21764 160,123.31641 Z m 40,0 c 39.33501,7.90065 70.11692,38.68256 78.01758,78.01757 H 260 c -33.37374,0 -60,-26.62626 -60,-60 z m 281.33398,0 v 18.01757 c 0,33.37374 -26.62625,60 -60,60 h -18.01757 c 7.90065,-39.33501 38.68257,-70.11692 78.01757,-78.01757 z m 40,0 c 39.33416,7.90123 70.11705,38.68316 78.01758,78.01757 h -18.01758 c -33.37373,0 -60,-26.62626 -60,-60 z M 180,201.14648 c 18.28472,24.35564 47.3861,40.1875 80,40.1875 h 18.01758 c -9.19842,45.79185 -49.40741,80 -98.01758,80 -48.61016,0 -88.819162,-34.20815 -98.017578,-80 H 100 c 32.6139,0 61.71528,-15.83186 80,-40.1875 z m 321.33398,0 c 18.28472,24.35564 47.3861,40.1875 80,40.1875 h 18.01758 c -9.19841,45.79185 -49.4074,80 -98.01758,80 -48.61015,0 -88.81916,-34.20815 -98.01757,-80 h 18.01757 c 32.61391,0 61.71529,-15.83186 80,-40.1875 z M 180,361.33398 c 77.55632,0 140,62.4437 140,140 v 61.33204 H 40 v -61.33204 c 0,-77.5563 62.4437,-140 140,-140 z m 321.33398,0 c 71.49842,0 130.24417,52.58141 139.90821,121.33204 H 361.42383 c 9.66432,-68.75063 68.41176,-121.33204 139.91015,-121.33204 z m -341.33398,40 v 40 h 40 v -40 z m 0,81.33204 v 40 h 40 v -40 z m 200,40 h 282.66602 v 40 H 360 Z m -240,80 h 40 v 40 h -40 z m 80,0 h 40 v 40 h -40 z m 241.33398,0 h 40 v 40 h -40 z m 80,0 h 40 v 40 h -40 z" /></svg>
