<?xml version="1.0" encoding="UTF-8" standalone="no"?>
<!-- Created with Inkscape (http://www.inkscape.org/) -->

<svg
   version="1.1"
   id="svg1251"
   xml:space="preserve"
   width="522.66602"
   height="682.66602"
   viewBox="0 0 522.66602 682.66602"
   sodipodi:docname="third-sing-fem-o.svg"
   inkscape:version="1.3.2 (091e20e, 2023-11-25)"
   xmlns:inkscape="http://www.inkscape.org/namespaces/inkscape"
   xmlns:sodipodi="http://sodipodi.sourceforge.net/DTD/sodipodi-0.dtd"
   xmlns="http://www.w3.org/2000/svg"
   xmlns:svg="http://www.w3.org/2000/svg"><sodipodi:namedview
     id="namedview1"
     pagecolor="#ffffff"
     bordercolor="#000000"
     borderopacity="0.25"
     inkscape:showpageshadow="2"
     inkscape:pageopacity="0.0"
     inkscape:pagecheckerboard="0"
     inkscape:deskcolor="#d1d1d1"
     inkscape:zoom="0.74907361"
     inkscape:cx="354.43779"
     inkscape:cy="381.80493"
     inkscape:window-width="1728"
     inkscape:window-height="1051"
     inkscape:window-x="0"
     inkscape:window-y="1730"
     inkscape:window-maximized="0"
     inkscape:current-layer="svg1251" /><defs
     id="defs1255"><clipPath
       clipPathUnits="userSpaceOnUse"
       id="clipPath3"><g
         id="g4"><path
           d="M 0,2.04e-5 H 682.66665 V 682.66667 H 0 Z"
           id="path3"
           style="stroke-width:1.33333" /></g></clipPath><clipPath
       clipPathUnits="userSpaceOnUse"
       id="clipPath4"><g
         id="g5"><path
           d="M 0,2.04e-5 H 682.66665 V 682.66667 H 0 Z"
           id="path4"
           style="stroke-width:1.33333" /></g></clipPath><clipPath
       clipPathUnits="userSpaceOnUse"
       id="clipPath9"><g
         id="g11"><g
           id="g10"><path
             d="M 0,2.04e-5 H 682.66665 V 682.66667 H 0 Z"
             id="path9"
             style="stroke-width:1.33333" /></g></g></clipPath><clipPath
       clipPathUnits="userSpaceOnUse"
       id="clipPath12"><g
         id="g14"><g
           id="g13"><path
             d="M 0,2.04e-5 H 682.66665 V 682.66667 H 0 Z"
             id="path12"
             style="stroke-width:1.33333" /></g></g></clipPath><clipPath
       clipPathUnits="userSpaceOnUse"
       id="clipPath15"><g
         id="g17"><g
           id="g16"><path
             d="M 0,2.04e-5 H 682.66665 V 682.66667 H 0 Z"
             id="path15"
             style="stroke-width:1.33333" /></g></g></clipPath><clipPath
       clipPathUnits="userSpaceOnUse"
       id="clipPath18"><g
         id="g20"><g
           id="g19"><path
             d="M 0,2.04e-5 H 682.66665 V 682.66667 H 0 Z"
             id="path18"
             style="stroke-width:1.33333" /></g></g></clipPath><clipPath
       clipPathUnits="userSpaceOnUse"
       id="clipPath21"><g
         id="g23"><g
           id="g22"><path
             d="M 0,2.04e-5 H 682.66665 V 682.66667 H 0 Z"
             id="path21"
             style="stroke-width:1.33333" /></g></g></clipPath></defs><path
     id="path30"
     style="fill:#231f20;stroke-miterlimit:10"
     d="M 261.33398,0 C 117.24041,0 0,117.24177 0,261.33398 0,317.0615 45.60648,362.66602 101.33398,362.66602 h 46.64063 C 106.58373,395.94248 80,446.94047 80,504 v 100 h 82.66602 v 78.66602 h 80 120 V 604 h 80 V 504 c 0,-57.05953 -26.58232,-108.05752 -67.97266,-141.33398 h 46.64062 c 55.72753,0 101.33204,-45.60452 101.33204,-101.33204 C 522.66602,117.24177 405.42757,0 261.33398,0 Z M 239.82412,41.090104 C 230.02468,108.77716 173.657,160 104,160 H 64.48242 C 98.05555,94.754956 163.04118,48.47544 201.43265,44.782773 c -0.45792,-0.415192 38.39147,-3.692669 38.39147,-3.692669 z m 43.27549,-0.01784 C 359.67552,48.507403 424.62347,94.779191 458.18359,160 H 421.33398 C 351.707,160 293.16257,108.48997 288.13109,74.781117 287.39139,74.5383 283.09961,41.072264 283.09961,41.072264 Z m -21.51953,61.253906 c 27.19752,52.32128 79.26933,89.69934 139.98437,96.4668 -8.55737,69.99113 -67.85621,123.87305 -140.23047,123.87305 -72.27831,0 -131.51681,-53.73983 -140.19726,-123.59571 61.5747,-5.9914 113.54975,-43.78473 140.44336,-96.74414 z M 48.63477,200 h 32.32617 c 5.09396,49.48046 30.26545,93.07555 67.13281,122.66602 H 101.33398 C 67.22453,322.66602 40,295.44345 40,261.33398 40,240.03449 43.05071,219.47524 48.63477,200 Z m 393.07031,0 h 32.32617 c 5.58394,19.47524 8.63477,40.03449 8.63477,61.33398 0,34.10947 -27.22256,61.33204 -61.33204,61.33204 H 374.57422 C 411.44098,293.07555 436.61123,249.48046 441.70508,200 Z m -180.3711,162.66602 c 19.11552,0 37.31064,3.78116 53.91211,10.60156 -10.34557,19.07095 -30.48226,32.0664 -53.91406,32.0664 -23.43009,0 -43.56513,-12.99583 -53.91015,-32.0664 16.60166,-6.8204 34.79661,-10.60156 53.9121,-10.60156 z m -88.32031,30.87695 c 17.40836,30.91128 50.52098,51.79101 88.31836,51.79101 37.79798,0 70.91166,-20.87921 88.32031,-51.79101 32.34099,25.85807 53.01368,65.64642 53.01368,110.45703 v 60 h -40 -120 -80 H 120 v -60 c 0,-44.81061 20.67214,-84.59896 53.01367,-110.45703 z M 202.66602,604 h 40 v 38.66602 h -40 z m 80,0 h 40 v 38.66602 h -40 z"
     sodipodi:nodetypes="ssscscccccccscssscsccccsccccccccsssccscsccscccscccscccccsccccccccccccc" /></svg>
