<?xml version="1.0" encoding="UTF-8" standalone="no"?>
<!-- Created with Inkscape (http://www.inkscape.org/) -->

<svg
   version="1.1"
   id="svg9"
   xml:space="preserve"
   width="683.64844"
   height="546.45312"
   viewBox="0 0 683.64844 546.45313"
   sodipodi:docname="third-pl-o.svg"
   inkscape:version="1.3.2 (091e20e, 2023-11-25)"
   xmlns:inkscape="http://www.inkscape.org/namespaces/inkscape"
   xmlns:sodipodi="http://sodipodi.sourceforge.net/DTD/sodipodi-0.dtd"
   xmlns="http://www.w3.org/2000/svg"
   xmlns:svg="http://www.w3.org/2000/svg"><sodipodi:namedview
     id="namedview1"
     pagecolor="#ffffff"
     bordercolor="#000000"
     borderopacity="0.25"
     inkscape:showpageshadow="2"
     inkscape:pageopacity="0.0"
     inkscape:pagecheckerboard="0"
     inkscape:deskcolor="#d1d1d1"
     inkscape:zoom="0.99770967"
     inkscape:cx="311.21278"
     inkscape:cy="245.56242"
     inkscape:window-width="1728"
     inkscape:window-height="1051"
     inkscape:window-x="0"
     inkscape:window-y="1730"
     inkscape:window-maximized="0"
     inkscape:current-layer="svg9" /><defs
     id="defs1"><clipPath
       clipPathUnits="userSpaceOnUse"
       id="clipPath1"><g
         id="g2"><path
           d="M 0,2.04e-5 H 682.66665 V 682.66667 H 0 Z"
           id="path1"
           style="stroke-width:1.33333" /></g></clipPath><clipPath
       clipPathUnits="userSpaceOnUse"
       id="clipPath7"><g
         id="g8"><path
           d="M 0,2.04e-5 H 682.66665 V 682.66667 H 0 Z"
           id="path7"
           style="stroke-width:1.33333" /></g></clipPath><clipPath
       clipPathUnits="userSpaceOnUse"
       id="clipPath14"><g
         id="g16"><g
           id="g15"><path
             d="M 0,2.04e-5 H 682.66665 V 682.66667 H 0 Z"
             id="path14"
             style="stroke-width:1.33333" /></g></g></clipPath><clipPath
       clipPathUnits="userSpaceOnUse"
       id="clipPath17"><g
         id="g19"><g
           id="g18"><path
             d="M 0,2.04e-5 H 682.66665 V 682.66667 H 0 Z"
             id="path17"
             style="stroke-width:1.33333" /></g></g></clipPath><clipPath
       clipPathUnits="userSpaceOnUse"
       id="clipPath20"><g
         id="g22"><g
           id="g21"><path
             d="M 0,2.04e-5 H 682.66665 V 682.66667 H 0 Z"
             id="path20"
             style="stroke-width:1.33333" /></g></g></clipPath><clipPath
       clipPathUnits="userSpaceOnUse"
       id="clipPath23"><g
         id="g25"><g
           id="g24"><path
             d="M 0,2.04e-5 H 682.66665 V 682.66667 H 0 Z"
             id="path23"
             style="stroke-width:1.33333" /></g></g></clipPath><clipPath
       clipPathUnits="userSpaceOnUse"
       id="clipPath26"><g
         id="g28"><g
           id="g27"><path
             d="M 0,2.04e-5 H 682.66665 V 682.66667 H 0 Z"
             id="path26"
             style="stroke-width:1.33333" /></g></g></clipPath><clipPath
       clipPathUnits="userSpaceOnUse"
       id="clipPath30"><g
         id="g32"><g
           id="g31"><path
             d="M 0,2.04e-5 H 682.66665 V 682.66667 H 0 Z"
             id="path30"
             style="stroke-width:1.33333" /></g></g></clipPath><clipPath
       clipPathUnits="userSpaceOnUse"
       id="clipPath34"><g
         id="g36"><g
           id="g35"><path
             d="M 0,2.04e-5 H 682.66665 V 682.66667 H 0 Z"
             id="path34"
             style="stroke-width:1.33333" /></g></g></clipPath><clipPath
       clipPathUnits="userSpaceOnUse"
       id="clipPath38"><g
         id="g40"><g
           id="g39"><path
             d="M 0,2.04e-5 H 682.66665 V 682.66667 H 0 Z"
             id="path38"
             style="stroke-width:1.33333" /></g></g></clipPath><clipPath
       clipPathUnits="userSpaceOnUse"
       id="clipPath41"><g
         id="g43"><g
           id="g42"><path
             d="M 0,2.04e-5 H 682.66665 V 682.66667 H 0 Z"
             id="path41"
             style="stroke-width:1.33333" /></g></g></clipPath><clipPath
       clipPathUnits="userSpaceOnUse"
       id="clipPath44"><g
         id="g46"><g
           id="g45"><path
             d="M 0,2.04e-5 H 682.66665 V 682.66667 H 0 Z"
             id="path44"
             style="stroke-width:1.33333" /></g></g></clipPath></defs><path
     id="path54"
     style="fill:#231f20;stroke-miterlimit:10"
     d="m 441.16731,426.45315 v 120 h 160 v -120 z m 40,40 h 80 v 40 h -80 z m -40,-120 v 80 h 40 v -80 z m 120,0 v 80 h 40 v -80 z m -97.8086,-127.2129 c -46.87746,-0.42061 -92.18778,33.40116 -100.8164,80.46094 -4.18541,39.79147 -1.08891,80.07793 -2.04102,120.08594 h 80.66602 v -40 h -40.66602 v -47.75586 c -3.99511,-31.39859 14.99056,-65.48028 47.83984,-71.03516 39.55401,-2.65536 79.40726,-0.52374 119.08399,-1.20898 28.32363,-2.8744 60.23053,7.77531 71.06054,36.54492 8.40572,26.88472 3.26082,55.64461 4.68165,83.45508 h -42 v 40 h 82 v -89.50586 c 5.2595,-51.29931 -33.22962,-102.55222 -84.82422,-109.33594 -41.7602,-2.50088 -83.74455,-0.53121 -125.59766,-1.1582 -3.12869,-0.33864 -6.26155,-0.51883 -9.38672,-0.54688 z M 509.93488,38.873072 c -8.62768,0.12831 -11.08736,6.42617 -8.76757,17.50195 -5.60386,56.249498 43.1422,110.305568 100,108.746088 h 21.33398 v -36.50195 c -7.17382,-9.48837 -33.23598,2.2615 -44.78711,-8.17969 -29.21197,-10.94791 -39.36865,-43.346648 -36.54687,-71.906248 4.00876,-15.00988 -15.41341,-6.58937 -24.25782,-8.74609 -2.66514,-0.64453 -4.9836,-0.94367 -6.97461,-0.91406 z m -8.76757,2.24804 c -0.0243,1.09918 -0.0129,2.21325 -0.0176,3.32032 0.47938,-1.34422 1.18929,-2.45784 2.15039,-3.32032 z m 39.12304,0 c 0.39711,0.381 0.70141,0.85644 0.9375,1.39844 -0.0237,-0.46499 -0.0342,-0.93448 -0.0605,-1.39844 z m 1.13867,6.04297 c -0.083,0.45242 -0.12712,0.86519 -0.26171,1.36914 -0.56878,5.75664 -0.58052,11.66586 -0.0449,17.52735 0.4222,-6.30198 0.49943,-12.63082 0.30664,-18.89649 z m -40.5332,21.76172 c -0.62155,8.66032 -2.34941,17.11244 -6.92187,24.89844 -13.08305,26.971898 -44.24732,33.488918 -71.47266,31.296868 v 40 c 32.45482,1.96501 66.11041,-4.74311 89.28906,-29.3789 3.65961,-3.36356 6.89209,-6.97694 9.76563,-10.78321 -12.22955,-16.09409 -19.82866,-35.644928 -20.66016,-56.033198 z m 18.98438,-49.49023 c -56.22542,0.86695 -110.08382,44.85558 -117.32422,102.130858 -6.95225,37.35292 7.27863,74.95916 32.86718,101.50781 9.06031,-2.54138 18.45681,-3.91903 27.93555,-3.83399 3.12516,0.0281 6.25804,0.20824 9.38672,0.54688 15.83403,0.2372 31.68666,0.10585 47.53906,-0.0176 -20.70881,-0.12105 -41.18433,-8.60326 -55.77343,-23.32617 -9.42847,-8.7935 -15.87268,-19.72339 -19.51368,-31.52539 -7.46921,0.58291 -15.01137,0.65629 -22.49609,0.20312 v -40 c 6.66023,0.53625 13.55593,0.52968 20.36523,-0.14843 4.28664,-23.23631 18.02741,-44.668168 40.06446,-55.578128 5.70072,-3.33518 11.72835,-5.74585 17.91406,-7.34765 0.0464,-1.88627 0.13336,-3.77571 0.32227,-5.67188 -1.05228,-5.02407 -1.06177,-9.00563 -0.0176,-11.93359 0.005,-1.10707 -0.007,-2.22114 0.0176,-3.32032 h 2.13281 c 1.56056,-1.40042 3.7174,-2.20465 6.63476,-2.24804 1.991,-0.0296 4.30947,0.26953 6.97461,0.91406 6.62338,1.61512 19.17622,-2.70002 23.38086,1.33398 h 0.87696 c 0.0264,0.46396 0.0368,0.93345 0.0605,1.39844 0.49009,1.12509 0.56436,2.66618 0.20117,4.64453 0.15767,5.12416 0.0785,10.28982 -0.16601,15.44922 27.31988,7.38753 51.12351,28.32832 57.40039,57.101558 0.51538,1.7378 0.93851,3.48385 1.3125,5.23243 9.50182,-0.43353 18.70041,-1.3872 22.52539,3.67187 v 36.50195 h -21.33398 c -1.36079,0.0373 -2.70977,3.4e-4 -4.06055,-0.0254 -10.36537,29.41022 -37.74679,53.0208 -69.75391,54.625 23.69215,-0.16693 47.37724,-0.18949 70.99024,1.22461 3.14515,0.41353 6.23849,1.00237 9.27929,1.73633 11.49576,-11.87711 20.64697,-26.01637 26.23828,-41.73047 25.53913,-63.65727 -16.15048,-142.062848 -82.78125,-157.371088 -10.29353,-2.98657 -20.7871,-4.30508 -31.19921,-4.14453 z m -6.57422,240.261718 c 2.60622,0.11813 5.22396,0.16986 7.86133,0.0898 0.56672,0.008 1.13121,-0.0123 1.69726,-0.0137 -3.1864,-0.0287 -6.37245,-0.0517 -9.55859,-0.0762 z" /><path
     id="path46"
     style="fill:#231f20;stroke-miterlimit:10"
     d="m 100.50129,445.18752 v 101.26563 h 160 V 445.18752 Z m 40,21.26563 h 80 v 40 h -80 z m 38.93555,-226.76563 c -45.82719,0.80803 -91.450131,24.1049 -115.412115,64.41016 -31.993703,48.15675 -17.493228,108.25196 -21.044921,162.35547 19.173701,0.005 38.347676,0.0106 57.521486,0.0156 V 445.1875 h 160 v 21.32227 c 19.28579,0.005 38.57174,0.0106 57.85742,0.0156 l -0.52344,-67.3125 c 5.67621,-55.26846 -19.03418,-114.61282 -69.29882,-141.49609 -21.03297,-12.7056 -45.0949,-18.45255 -69.09961,-18.0293 z m 1.61132,40.48047 c 27.00171,0.0814 53.96333,10.649 71.93165,31.98633 30.40943,30.57596 24.47694,75.19111 25.01757,114.29883 H 83.147772 c 0.66216,-36.3193 -5.716397,-75.97359 18.974608,-106.57227 17.67105,-26.42929 48.32385,-39.80514 78.92578,-39.71289 z m -40.54687,186.28516 v 0.0254 c 26.6667,0.007 53.3333,0.0145 80,0.0215 v -0.0469 z m 20,-390.666018 c -1.29569,53.350438 46.64956,101.295688 100,99.999998 h 78.21094 v -40 h -67.7168 c -35.32791,5.03091 -71.85575,-23.04827 -70.49414,-59.999998 z m 0.27539,9.14258 c -8.17938,17.568888 -17.02872,44.992038 -42.3457,48.179688 -31.615029,5.28496 -64.119889,1.56452 -96.14063,2.67773 v 40 H 91.755194 C 126.3235,179.231 160.03997,162.13135 180.55207,135.25393 169.52001,120.67756 162.25421,103.32088 160.77668,84.929712 Z m 79.8418,89.021478 c 3.78089,32.6764 -23.0543,62.30089 -54.08789,65.8418 20.44713,0.6824 40.68487,5.93221 58.86132,16.18359 22.80306,-19.66736 35.48232,-49.85698 35.625,-80.18945 h -20.51562 c -6.75129,0.16396 -13.40004,-0.50682 -19.88281,-1.83594 z m -120.54688,0.13477 c -9.20091,1.98008 -18.71992,2.65722 -28.316406,1.70117 H 80.17121 c -1.412215,30.71193 13.088211,60.29054 35.89844,80.01172 18.24554,-9.46193 38.57542,-14.92049 59.10351,-15.90625 -4.20413,-0.41055 -8.4248,-1.29931 -12.60156,-2.7832 -28.01149,-7.61473 -42.74182,-35.6186 -42.5,-63.02344 z M 179.85481,2.1914955e-5 C 143.08163,-0.01777809 106.36097,10.807542 76.403632,33.062522 23.891266,69.262392 -4.1606162,134.1063 0.50128788,197.11916 -4.5271582,239.38468 31.405716,280.96969 74.425116,279.78713 h 8.707031 c 9.693771,-9.63466 20.830173,-17.70956 32.937503,-23.98828 -5.55587,-4.80347 -10.60833,-10.19986 -15.06836,-16.04688 -8.858781,0.01 -17.719584,-0.0189 -26.576174,0.0352 l -6.904297,-0.67969 -6.40039,-1.95312 C 35.788282,226.75839 40.612609,198.14793 40.659491,175.78713 H 22.29035 v -40 c 8.294702,-0.28837 16.621232,-0.25064 24.957032,-0.13086 18.602987,-55.425448 74.176048,-97.243098 133.501958,-96.029298 2.32065,0.0475 4.64653,0.16092 6.97656,0.3418 57.30257,1.33971 107.80829,42.94013 125.88476,95.818358 h 25.10157 v 40 h -18.05274 c 0.0447,3.02026 0.0209,6.04772 -0.1582,9.08789 1.47916,21.40145 -0.62461,49.84609 -27.01758,54.23242 -11.02479,0.23806 -22.05341,0.39259 -33.08398,0.51367 -4.36219,5.9887 -9.37274,11.49528 -15.00782,16.35547 1.04463,0.58916 2.11409,1.11777 3.14454,1.74024 11.02904,5.89871 20.75019,13.43186 29.26757,22.07031 h 1.77735 c 44.49245,4.82662 85.68277,-36.24901 80.91992,-80.75977 C 364.01936,145.61337 346.69363,90.299452 307.69074,52.597682 274.50136,17.970902 227.13461,0.02287191 179.85481,2.1914955e-5 Z M 174.87043,239.84572 c 0.10083,0.0104 0.20192,0.037 0.30273,0.0469 0.30479,-0.0146 0.60943,-0.0276 0.91407,-0.0449 -0.40559,-0.001 -0.81121,-8.2e-4 -1.2168,-0.002 z" /></svg>
